<svg width="22" height="23" viewBox="0 0 22 23" fill="none" xmlns="http://www.w3.org/2000/svg">
<g opacity="0.5">
<path d="M6.59684 19.5166C6.10894 19.5166 5.69141 19.343 5.34426 18.9958C4.99711 18.6487 4.82324 18.2309 4.82265 17.7424V6.21012C4.5713 6.21012 4.36077 6.12496 4.19103 5.95463C4.0213 5.78431 3.93614 5.57377 3.93555 5.32302C3.93496 5.07227 4.02012 4.86173 4.19103 4.69141C4.36195 4.52109 4.57249 4.43592 4.82265 4.43592H8.37103C8.37103 4.18458 8.45619 3.97404 8.62652 3.80431C8.79684 3.63458 9.00738 3.54942 9.25813 3.54883H12.8065C13.0579 3.54883 13.2687 3.63399 13.439 3.80431C13.6093 3.97463 13.6942 4.18517 13.6936 4.43592H17.242C17.4933 4.43592 17.7042 4.52109 17.8745 4.69141C18.0448 4.86173 18.1297 5.07227 18.1291 5.32302C18.1285 5.57377 18.0433 5.78461 17.8736 5.95552C17.7039 6.12644 17.4933 6.2113 17.242 6.21012V17.7424C17.242 18.2303 17.0684 18.6481 16.7213 18.9958C16.3741 19.3436 15.9563 19.5172 15.4678 19.5166H6.59684ZM15.4678 6.21012H6.59684V17.7424H15.4678V6.21012ZM9.25813 15.9682C9.50947 15.9682 9.72031 15.883 9.89063 15.7127C10.061 15.5424 10.1458 15.3318 10.1452 15.0811V8.87141C10.1452 8.62006 10.0601 8.40953 9.88974 8.2398C9.71942 8.07006 9.50888 7.9849 9.25813 7.98431C9.00738 7.98372 8.79684 8.06888 8.62652 8.2398C8.45619 8.41071 8.37103 8.62125 8.37103 8.87141V15.0811C8.37103 15.3324 8.45619 15.5433 8.62652 15.7136C8.79684 15.8839 9.00738 15.9688 9.25813 15.9682ZM12.8065 15.9682C13.0579 15.9682 13.2687 15.883 13.439 15.7127C13.6093 15.5424 13.6942 15.3318 13.6936 15.0811V8.87141C13.6936 8.62006 13.6085 8.40953 13.4381 8.2398C13.2678 8.07006 13.0573 7.9849 12.8065 7.98431C12.5558 7.98372 12.3452 8.06888 12.1749 8.2398C12.0046 8.41071 11.9194 8.62125 11.9194 8.87141V15.0811C11.9194 15.3324 12.0046 15.5433 12.1749 15.7136C12.3452 15.8839 12.5558 15.9688 12.8065 15.9682Z" fill="#112D49"/>
</g>
</svg>
