<svg width="116" height="94" viewBox="0 0 116 94" fill="none" xmlns="http://www.w3.org/2000/svg">
<ellipse cx="57.8877" cy="37.8576" rx="32.04" ry="32" fill="#112D49"/>
<path d="M0.990139 93.631V91.5931H6.94648C7.32994 91.5931 7.66227 91.505 7.94347 91.3163C8.22467 91.1402 8.45475 90.9012 8.62091 90.5993C8.78707 90.31 8.86376 89.9955 8.86376 89.681C8.86376 89.3288 8.78707 89.0143 8.62091 88.725C8.46753 88.4357 8.23745 88.2092 7.95625 88.0457C7.67505 87.8822 7.34272 87.7941 6.97205 87.7941H4.50515C3.72546 87.7941 3.03524 87.6306 2.42171 87.3161C1.80818 87.0016 1.32247 86.5487 0.964574 85.9827C0.606682 85.4166 0.427734 84.7373 0.427734 83.9574C0.427734 83.1774 0.593899 82.4981 0.939009 81.9069C1.28412 81.3157 1.74427 80.8502 2.34501 80.5106C2.93298 80.1709 3.61042 80.0074 4.36455 80.0074H10.3209V82.0453H4.58184C4.23673 82.0453 3.92996 82.1333 3.64876 82.2969C3.36756 82.4604 3.16305 82.6868 3.00967 82.9636C2.85629 83.2403 2.7796 83.5297 2.7796 83.8441C2.7796 84.1712 2.85629 84.4605 3.00967 84.7247C3.16305 84.9889 3.36756 85.2027 3.64876 85.3663C3.91718 85.5298 4.22395 85.6053 4.56906 85.6053H7.09987C7.94347 85.6053 8.67204 85.7688 9.28557 86.0959C9.8991 86.4229 10.372 86.8632 10.7044 87.4419C11.0367 88.0079 11.2028 88.6621 11.2028 89.4043C11.2028 90.2722 11.0239 91.027 10.6788 91.656C10.3337 92.285 9.86075 92.7756 9.26 93.1152C8.65926 93.4548 7.98181 93.631 7.22768 93.631H0.990139Z" fill="#112D49"/>
<path d="M23.3812 93.8576C22.4226 93.8576 21.5917 93.6186 20.8887 93.1531C20.1857 92.6877 19.6489 92.0587 19.2782 91.2788C18.9075 90.4989 18.7158 89.6309 18.7158 88.6748C18.7158 87.6936 18.9331 86.8005 19.3549 86.0206C19.7895 85.2407 20.3902 84.6117 21.1955 84.1588C22.0008 83.706 22.9466 83.4669 24.0586 83.4669C25.1579 83.4669 26.091 83.6934 26.8579 84.1588C27.6248 84.6243 28.2255 85.2407 28.6345 86.0206C29.0436 86.8131 29.2609 87.6811 29.2609 88.6371V93.6186H26.9857V91.7694H26.9473C26.7556 92.1342 26.4872 92.4738 26.1804 92.7883C25.8609 93.1028 25.4774 93.367 25.0173 93.5557C24.5443 93.7695 23.9947 93.8576 23.3812 93.8576ZM23.9947 91.9581C24.5827 91.9581 25.1067 91.8071 25.5413 91.5178C25.9887 91.2285 26.3338 90.8259 26.5767 90.3353C26.8323 89.8322 26.9473 89.2787 26.9346 88.6497C26.9346 88.0333 26.8195 87.4672 26.5767 86.9892C26.3338 86.4986 26.0015 86.1086 25.5669 85.8193C25.1323 85.53 24.6083 85.379 24.0075 85.379C23.3812 85.379 22.8316 85.53 22.3842 85.8193C21.9368 86.1086 21.5917 86.4986 21.3617 87.0018C21.1188 87.4924 21.0038 88.0585 21.0038 88.6748C21.0038 89.2912 21.1188 89.8447 21.3617 90.3353C21.6045 90.8385 21.9368 91.2285 22.3842 91.5178C22.8188 91.8071 23.3556 91.9581 23.9947 91.9581Z" fill="#112D49"/>
<path d="M37.9199 93.6311V79.4164H40.1951V87.6685H42.368L44.8988 83.6934H47.4168L44.592 88.0207C45.4996 88.3352 46.2026 88.8509 46.7138 89.5931C47.2123 90.3227 47.468 91.1655 47.468 92.109V93.6311H45.1928V92.109C45.1928 91.6436 45.0778 91.2159 44.8605 90.8385C44.6432 90.4611 44.3364 90.1592 43.953 89.9328C43.5695 89.7063 43.1349 89.6057 42.6492 89.6057H40.2207V93.6311H37.9199Z" fill="#112D49"/>
<path d="M55.6816 93.6312V86.5238C55.6816 85.6432 55.9373 84.9513 56.4486 84.4482C56.9598 83.945 57.6628 83.6934 58.5576 83.6934H60.9861V85.6055H58.9666C58.647 85.6055 58.4042 85.6935 58.2252 85.8822C58.0463 86.0583 57.9568 86.3099 57.9568 86.6244V93.6312H55.6816Z" fill="#112D49"/>
<path d="M73.2933 93.8575C72.2452 93.8575 71.3249 93.6311 70.5196 93.1656C69.7144 92.7002 69.0753 92.0838 68.6151 91.2913C68.1422 90.5114 67.9121 89.6308 67.9121 88.6496C67.9121 87.681 68.1422 86.8004 68.6151 86.0079C69.088 85.228 69.7144 84.599 70.5196 84.1462C71.3249 83.6807 72.2452 83.4543 73.2933 83.4543C74.3158 83.4543 75.2361 83.6807 76.0414 84.1462C76.8466 84.6116 77.4857 85.228 77.9459 86.0079C78.406 86.7879 78.6489 87.6684 78.6489 88.6496C78.6489 89.6182 78.4188 90.4988 77.9459 91.2913C77.4729 92.0712 76.8466 92.7002 76.0414 93.1656C75.2489 93.6311 74.3286 93.8575 73.2933 93.8575ZM73.2933 91.958C73.9068 91.958 74.4564 91.8071 74.9166 91.5177C75.3767 91.2284 75.7346 90.8384 75.9903 90.3353C76.2459 89.8447 76.3609 89.2786 76.3609 88.6622C76.3609 88.0584 76.2331 87.4923 75.9903 87.0017C75.7346 86.4985 75.3895 86.1086 74.9166 85.8192C74.4564 85.5299 73.9196 85.379 73.2933 85.379C72.6542 85.379 72.1173 85.5299 71.6572 85.8192C71.1971 86.1086 70.8519 86.4985 70.5835 87.0017C70.3279 87.4923 70.2001 88.0584 70.2001 88.6748C70.2001 89.2912 70.3279 89.8447 70.5835 90.3353C70.8392 90.8384 71.1971 91.2284 71.6572 91.5177C72.1173 91.8071 72.667 91.958 73.2933 91.958Z" fill="#112D49"/>
<path d="M91.5638 93.8575C90.5157 93.8575 89.5954 93.6311 88.7901 93.1656C87.9849 92.7002 87.3458 92.0838 86.8856 91.2913C86.4127 90.5114 86.1826 89.6308 86.1826 88.6496C86.1826 87.681 86.4127 86.8004 86.8856 86.0079C87.3585 85.228 87.9849 84.599 88.7901 84.1462C89.5954 83.6807 90.5157 83.4543 91.5638 83.4543C92.5863 83.4543 93.5066 83.6807 94.3119 84.1462C95.1171 84.6116 95.7562 85.228 96.2164 86.0079C96.6765 86.7879 96.9194 87.6684 96.9194 88.6496C96.9194 89.6182 96.6893 90.4988 96.2164 91.2913C95.7434 92.0712 95.1171 92.7002 94.3119 93.1656C93.5066 93.6311 92.5863 93.8575 91.5638 93.8575ZM91.5638 91.958C92.1773 91.958 92.7269 91.8071 93.1871 91.5177C93.6472 91.2284 94.0051 90.8384 94.2607 90.3353C94.5164 89.8447 94.6314 89.2786 94.6314 88.6622C94.6314 88.0584 94.5036 87.4923 94.2607 87.0017C94.0051 86.4985 93.66 86.1086 93.1871 85.8192C92.7269 85.5299 92.1901 85.379 91.5638 85.379C90.9247 85.379 90.3879 85.5299 89.9277 85.8192C89.4676 86.1086 89.1224 86.4985 88.854 87.0017C88.5984 87.4923 88.4706 88.0584 88.4706 88.6748C88.4706 89.2912 88.5984 89.8447 88.854 90.3353C89.1097 90.8384 89.4676 91.2284 89.9277 91.5177C90.3879 91.8071 90.9247 91.958 91.5638 91.958Z" fill="#112D49"/>
<path d="M110.173 93.8576C109.151 93.8576 108.23 93.6437 107.451 93.216C106.658 92.7883 106.045 92.1719 105.597 91.3794C105.15 90.5869 104.933 89.6434 104.933 88.549V79.4164H107.208V85.2029H107.233C107.438 84.8507 107.719 84.5488 108.064 84.2846C108.409 84.0204 108.793 83.8191 109.215 83.6808C109.636 83.5424 110.084 83.4669 110.557 83.4669C111.515 83.4669 112.372 83.6808 113.1 84.0959C113.829 84.5236 114.404 85.1023 114.826 85.857C115.235 86.6118 115.452 87.4924 115.452 88.4987C115.452 89.2912 115.324 90.0083 115.081 90.675C114.839 91.3291 114.493 91.8952 114.033 92.3732C113.573 92.8512 113.024 93.216 112.384 93.4676C111.72 93.7318 110.991 93.8576 110.173 93.8576ZM110.173 91.9581C110.748 91.9581 111.272 91.8197 111.72 91.5429C112.167 91.2662 112.512 90.8762 112.768 90.3856C113.024 89.895 113.139 89.3164 113.139 88.6748C113.139 88.0459 113.011 87.4798 112.768 86.9766C112.512 86.486 112.167 86.096 111.733 85.8067C111.285 85.5174 110.774 85.379 110.199 85.379C109.624 85.379 109.1 85.5174 108.652 85.7941C108.205 86.0709 107.86 86.4608 107.604 86.9514C107.348 87.442 107.233 88.0207 107.233 88.6623C107.233 89.3164 107.361 89.8825 107.604 90.3731C107.86 90.8637 108.205 91.2536 108.652 91.5304C109.1 91.8071 109.598 91.9581 110.173 91.9581Z" fill="#112D49"/>
<path d="M61.2567 24.6829H59.365L48.3982 35.4761L48.0147 35.8535L47.4523 36.407L45.2666 38.5581V40.4198L48.4621 43.5647H50.3538L51.3763 42.5583L51.9387 42.0174L52.3222 41.6275L52.8846 41.0865L61.9086 32.1929L62.471 31.6394L62.8544 31.262L63.4168 30.7085L64.4394 29.7147V27.8529L61.2567 24.6829ZM63.6597 28.5951L63.1101 29.136V29.1486L62.4838 29.765L61.9214 30.3185L51.0057 41.074L50.4433 41.6149L49.8169 42.2313H49.0372L46.6343 39.8663V39.099L48.4237 37.3379L48.9861 36.7844L57.5883 28.3184L58.1507 27.7649L59.9402 26.0038L60.4898 25.4629H61.2695L63.6725 27.8278V28.5951H63.6597Z" fill="#73A4E0"/>
<path d="M83.738 71.4409L83.1756 71.9944H84.1343L84.2237 71.9063L83.738 71.4409ZM83.738 71.4409L83.1756 71.9944H84.1343L84.2237 71.9063L83.738 71.4409ZM83.738 71.4409L83.1756 71.9944H84.1343L84.2237 71.9063L83.738 71.4409ZM83.738 71.4409L83.1756 71.9944H84.1343L84.2237 71.9063L83.738 71.4409ZM83.738 71.4409L83.1756 71.9944H84.1343L84.2237 71.9063L83.738 71.4409ZM94.6537 61.4779L93.7974 60.6351L93.2349 61.1886L90.3079 64.0693L89.3621 65.0002L88.7996 65.5537L83.2779 70.9754L82.332 71.9063L82.805 72.3718L83.2012 72.7617H87.2147L94.1169 65.9688L94.1041 62.195L94.6665 61.6415V61.4779H94.6537ZM93.3117 62.9749V64.887L86.6395 71.4535H84.6967L84.2237 71.9189L83.7508 71.4535H84.7095L92.762 63.5284L93.3117 62.9749V62.0314L93.7846 62.4969L93.3117 62.9749ZM83.738 71.4409L83.1756 71.9944H84.1343L84.2237 71.9063L83.738 71.4409ZM83.738 71.4409L83.1756 71.9944H84.1343L84.2237 71.9063L83.738 71.4409ZM83.738 71.4409L83.1756 71.9944H84.1343L84.2237 71.9063L83.738 71.4409ZM83.738 71.4409L83.1756 71.9944H84.1343L84.2237 71.9063L83.738 71.4409Z" fill="#73A4E0"/>
<path d="M65.6127 32.8597L64.6668 33.7906L64.1811 33.3251L62.4683 31.6395L61.9059 32.193L52.8819 41.0866L54.5947 42.7723L55.0676 43.2252L54.5052 43.7912L54.1218 44.1686L53.7639 43.8164L53.6489 43.7032L50.9902 41.0866L61.9059 30.3186L62.4683 29.7651L63.4142 30.696L62.8518 31.2621L64.5646 32.9477L65.1398 32.3942L65.2548 32.5075L65.6127 32.8597Z" fill="#73A4E0"/>
<path d="M57.1797 26.8343L56.6173 27.3878L55.2369 26.0292H52.4632L51.4279 27.0482L50.8655 27.6017L50.482 27.9791L49.9196 28.5325L48.2452 30.1805L47.6828 30.7339L46.6475 31.7529V34.4826L48.9738 36.7721L57.5759 28.3061L58.1383 27.7526L57.1797 26.8343ZM48.961 34.9229L47.9768 33.9543V32.319L53.5752 26.8092H55.2369L56.2211 27.7778L48.961 34.9229Z" fill="#73A4E0"/>
<path d="M36.9682 13.9528L36.6359 13.1351L34.7058 8.48073L24.3525 0.857574L21.042 4.11566L28.7878 14.305L33.5299 16.2045L34.3351 16.519L34.8847 16.7328L37.1983 14.456V14.4434L37.3516 14.305L36.9682 13.9528ZM35.6005 14.1541L34.5524 15.1856L29.6442 13.2232L22.8187 4.24145L24.4803 2.60612L25.0299 2.05262L34.1562 8.77006L36.1629 13.6131L35.6005 14.1541Z" fill="#73A4E0"/>
<path d="M51.4192 27.048L50.8567 27.6015L37.3463 14.3176L36.9884 13.9654L36.6561 13.1477L36.4132 13.3867L36.196 13.6006L35.6336 14.1541L33.793 15.9655L34.3554 16.519L34.7388 16.8964L48.2493 30.1929L49.1951 31.1238L52.3906 27.9789L51.4192 27.048ZM49.9109 28.545L49.1823 29.262L35.6719 15.9655L36.9629 14.695L50.4733 27.9915L49.9109 28.545Z" fill="#73A4E0"/>
<path d="M54.7058 42.8713L53.7568 43.8053L65.6057 55.4666L66.5547 54.5326L54.7058 42.8713Z" fill="#73A4E0"/>
<path d="M75.6638 49.6588L74.7148 50.5928L89.8174 65.4562L90.7664 64.5222L75.6638 49.6588Z" fill="#73A4E0"/>
<path d="M82.7953 72.3845L70.4736 60.2956V53.3392L57.6406 40.7094L58.5865 39.7785L71.8157 52.7857V59.7421L83.7412 71.4536L82.7953 72.3845Z" fill="#73A4E0"/>
<path d="M68.6331 54.5467C67.9685 53.88 66.9587 53.7416 66.1662 54.1567C65.9745 54.2574 65.7828 54.3957 65.6166 54.5467C65.5911 54.5718 65.5527 54.6096 65.5399 54.6348C65.476 54.6851 65.4249 54.748 65.3866 54.8109C65.3738 54.8234 65.3738 54.8234 65.3738 54.8234C65.3098 54.9115 65.2587 54.987 65.2076 55.075C65.0798 55.3518 65.0031 55.6537 64.9903 55.9556C64.9647 56.5091 65.182 57.0752 65.6166 57.5029C66.358 58.2325 67.5083 58.3079 68.3392 57.7419L68.3519 57.7293C68.4542 57.679 68.5564 57.5909 68.6331 57.5029C69.4767 56.6978 69.4767 55.3644 68.6331 54.5467ZM67.6873 56.5846C67.585 56.6852 67.4572 56.7481 67.3294 56.7858C67.061 56.8613 66.767 56.7984 66.5625 56.5846C66.358 56.3833 66.2813 56.0814 66.358 55.8172C66.3835 55.6914 66.4474 55.5782 66.5625 55.4776C66.8692 55.1631 67.3805 55.1631 67.6873 55.4776C68.0068 55.7795 68.0068 56.2827 67.6873 56.5846Z" fill="#73A4E0"/>
<path d="M83.6008 62.3585C82.9362 61.7044 81.9392 61.566 81.1339 61.9686C80.9294 62.0692 80.7505 62.195 80.5843 62.3585C80.5587 62.3837 80.5332 62.4089 80.4948 62.4466C80.4309 62.5095 80.3798 62.585 80.3287 62.6479C80.2775 62.7233 80.2392 62.7988 80.1881 62.8869C80.0475 63.1636 79.9836 63.4781 79.9708 63.78C79.9452 64.3335 80.1625 64.887 80.5971 65.3147C81.3257 66.0443 82.4505 66.1324 83.2941 65.5915C83.2941 65.5915 83.3068 65.5915 83.3068 65.5789C83.4219 65.5034 83.5241 65.4153 83.6264 65.3147C84.4444 64.5096 84.4444 63.1762 83.6008 62.3585ZM82.655 64.3964C82.5527 64.4971 82.4249 64.5725 82.2971 64.5977C82.0414 64.6606 81.7474 64.5977 81.5302 64.3964C81.3256 64.1951 81.2617 63.9058 81.3256 63.6416C81.3512 63.5159 81.4279 63.4026 81.5302 63.2894C81.8497 62.9749 82.3482 62.9749 82.655 63.2894C82.9617 63.5913 82.9745 64.0945 82.655 64.3964Z" fill="#73A4E0"/>
<path d="M75.587 47.7034C74.7562 46.8857 73.3885 46.8857 72.5577 47.7034C72.4555 47.7915 72.3788 47.9047 72.3149 48.0179C71.7397 48.8355 71.8292 49.9551 72.5577 50.6847C73.0307 51.1502 73.657 51.3389 74.2705 51.2885C74.5773 51.2634 74.8585 51.1753 75.1269 51.0244C75.178 50.9992 75.2291 50.9615 75.2675 50.9363C75.3697 50.8608 75.472 50.7854 75.5487 50.6973C75.5615 50.6973 75.5615 50.6973 75.5742 50.6847C75.766 50.4835 75.9194 50.2696 76.0088 50.0306C76.3795 49.2507 76.2261 48.3324 75.587 47.7034ZM74.2833 49.9425C74.0276 50.0054 73.7337 49.9425 73.5164 49.7413C73.3119 49.54 73.2479 49.2381 73.3119 48.9865C73.3374 48.8607 73.4013 48.7349 73.5164 48.6343C73.8359 48.3198 74.3344 48.3324 74.6412 48.6343C74.9479 48.9362 74.9479 49.4394 74.6412 49.7413C74.5389 49.8545 74.4111 49.9174 74.2833 49.9425Z" fill="#73A4E0"/>
<path d="M92.1337 56.9243C91.4691 56.2701 90.4593 56.1318 89.654 56.5343C89.4495 56.6349 89.2706 56.7733 89.1044 56.9243C89.0789 56.9494 89.0405 56.9872 89.0149 57.0123C88.951 57.0752 88.8871 57.1507 88.8488 57.2262C88.7849 57.3142 88.7337 57.3897 88.7082 57.4652C88.5676 57.7419 88.4909 58.0438 88.4781 58.3458C88.4653 58.8992 88.6698 59.4653 89.1044 59.893C89.8458 60.6226 90.9961 60.6981 91.8269 60.1446C91.942 60.0691 92.0315 59.9811 92.1337 59.893C92.9645 59.0754 92.9645 57.7419 92.1337 56.9243ZM91.1878 58.9621C91.0856 59.0628 90.9578 59.1383 90.83 59.1634C90.5615 59.2263 90.2803 59.1634 90.0631 58.9621C89.8585 58.7609 89.7946 58.4715 89.8585 58.2074C89.8841 58.0816 89.948 57.9684 90.0631 57.8552C90.3826 57.5407 90.8811 57.5407 91.1878 57.8552C91.4946 58.1696 91.4946 58.6602 91.1878 58.9621Z" fill="#73A4E0"/>
<path d="M83.0893 48.0054C82.4246 47.3513 81.4149 47.2129 80.6096 47.6155C80.4179 47.7161 80.2261 47.8545 80.06 48.0054C80.0344 48.0306 80.0089 48.0683 79.9833 48.0935C79.9194 48.1564 79.8683 48.2067 79.8299 48.2696C79.8171 48.2822 79.8171 48.2822 79.8171 48.2822C79.766 48.3703 79.7021 48.4457 79.651 48.5338C79.5231 48.8105 79.4464 49.1124 79.4337 49.4143C79.4081 49.9678 79.6254 50.5339 80.06 50.9616C80.8013 51.6912 81.9389 51.7667 82.7697 51.2006C82.872 51.1377 82.987 51.0497 83.0893 50.9616C83.9201 50.1691 83.9201 48.8357 83.0893 48.0054ZM82.1434 50.0559C82.0412 50.1565 81.9133 50.2194 81.7855 50.2572C81.5299 50.3201 81.2359 50.2572 81.0186 50.0559C80.8141 49.8546 80.7374 49.5653 80.8141 49.3011C80.8397 49.1753 80.9036 49.0621 81.0186 48.9489C81.3382 48.6344 81.8367 48.6344 82.1434 48.9489C82.4502 49.2508 82.4502 49.754 82.1434 50.0559Z" fill="#73A4E0"/>
<path d="M81.5285 62.3585L80.5826 63.2894L75.8789 58.6728V51.6283H77.221V58.1193L81.5285 62.3585Z" fill="#73A4E0"/>
<path d="M78.8818 45.9171H69.9472L61.1533 37.2499L62.0992 36.319L70.5096 44.5963H75.6352L64.2977 33.4383L65.2435 32.5074L78.8818 45.9171Z" fill="#73A4E0"/>
<path d="M77.7322 44.7837L76.7832 45.7177L80.064 48.9465L81.013 48.0125L77.7322 44.7837Z" fill="#73A4E0"/>
<path d="M90.0674 56.9241L89.1088 57.855L85.8494 54.6472H79.1006V53.3264H86.399L90.0674 56.9241Z" fill="#73A4E0"/>
<path d="M83.2899 42.7488L81.3105 44.6968L82.2595 45.6308L84.2389 43.6828L83.2899 42.7488Z" fill="#73A4E0"/>
<path d="M66.1464 59.6144L63.5977 62.1227L64.5467 63.0567L67.0954 60.5483L66.1464 59.6144Z" fill="#73A4E0"/>
<path d="M64.5535 59.6142L63.6045 60.5482L66.1532 63.0566L67.1022 62.1226L64.5535 59.6142Z" fill="#73A4E0"/>
<path d="M81.1327 42.1936L80.7492 42.571L70.5621 32.5451H66.8809L66.3185 33.0986L66.0884 33.3251L65.526 33.8785L65.1426 34.2559L64.5674 34.8094L61.6276 37.7153L61.0524 38.2688L59.0584 40.2438L55.5434 43.7031L54.981 44.244L54.5976 44.634L54.0351 45.1875L53.8051 45.4139V49.0368L63.187 58.2827L62.2411 59.2136L52.4502 49.5903V44.8856L53.0893 44.2566V44.244L53.6517 43.7031L54.0351 43.3257V43.3131L54.5976 42.7722L63.6215 33.8785L65.7561 31.7778H70.5493L81.1327 42.1936Z" fill="#73A4E0"/>
<path d="M95.3811 56.2071V60.9244L94.6526 61.654L94.0774 62.2075L92.7353 63.5284L84.6955 71.4408L84.2098 71.9188L84.1331 72.0069L83.3534 72.7617L82.791 73.3278L82.0752 74.0196H77.2948L67.5039 64.3838L67.8874 64.0064L68.4498 63.4529L77.8444 72.6988H81.5256L83.2639 70.988L88.7729 65.5536L89.3353 65.0001L90.2939 64.0693L93.221 61.1886L94.039 60.3835V60.3709L94.6014 59.8174V56.2071L84.4015 46.1687L84.785 45.7913L95.3811 56.2071Z" fill="#73A4E0"/>
<path d="M61.2595 24.683H59.355L57.1821 26.834L48.401 35.4761L48.0175 35.8535L47.4551 36.407L45.2694 38.5581L44.707 39.1116V40.9733L47.9025 44.1182H49.7942L50.3566 43.5647L51.3792 42.5584L51.9416 42.0174L52.325 41.6275L52.8874 41.0866L61.9114 32.1929L62.4738 31.6394L62.8573 31.262L63.4197 30.7085L64.4422 29.7147V27.853L61.2595 24.683ZM61.9114 30.3185L50.9957 41.074L50.4333 41.6149L49.2318 42.7974H48.4521L46.0363 40.445V39.6777L46.5987 39.1242L48.3882 37.363L48.9506 36.8095L57.5528 28.3436L58.1152 27.7901L59.8919 26.029H60.6844L63.0873 28.4065V29.1738L62.461 29.7902L61.9114 30.3185Z" fill="white"/>
<path d="M94.0834 62.2076V62.0441L93.227 61.2013L90.3 64.082L89.3541 65.0128L88.7917 65.5663L83.27 70.9881L81.7617 72.4725L82.6181 73.3153H86.6316L94.0962 65.9689L94.0834 62.2076ZM84.1391 72.007L84.2286 71.919L84.7015 71.4535L92.7541 63.5285V62.585L93.227 63.0504L92.7541 63.5159V65.4154L86.6572 71.4284L86.0948 71.9818H84.1391L83.6662 72.4473L83.1933 71.9818H84.1391V72.007Z" fill="#112D49"/>
<path d="M65.0542 33.4131L64.1083 34.3439L63.6226 33.8785L61.9098 32.1929L52.8858 41.0865L52.3234 41.6274L54.0362 43.3131V43.3257L54.1512 43.4263V43.4389H54.164L54.5091 43.7911L54.1257 44.1685L53.5633 44.722L53.2054 44.3572L53.0903 44.2565V44.244L51.3776 42.5583L50.4189 41.6274L50.9941 41.0865L61.9098 30.3185L65.0542 33.4131Z" fill="white"/>
<path d="M55.2378 26.0292H52.4641L51.4288 27.0482L50.8664 27.6017L50.4829 27.9791L49.9205 28.5325L48.2461 30.1805L47.6837 30.7339L46.6483 31.7529L46.0859 32.3064V35.0361L48.4122 37.3256L48.9746 36.7721L57.5768 28.3061L55.2378 26.0292ZM48.3995 35.4764L47.4153 34.5078V32.8725L53.0137 27.3627H54.6753L55.6596 28.3313L48.3995 35.4764Z" fill="white"/>
<path d="M36.9749 13.9528L36.6426 13.1351L34.7125 8.48073L24.3592 0.857574L20.4863 4.66915L28.2321 14.8459L33.7795 17.0725L34.3291 17.2863L37.205 14.456V14.4434L36.9749 13.9528ZM33.9968 15.7391L29.0757 13.7641L22.2502 4.79494L22.8126 4.24145L24.4743 2.60612L33.5877 9.32355L35.5945 14.1666L33.9968 15.7391Z" fill="white"/>
<path d="M50.8548 27.6142L37.3444 14.3177L36.3985 13.3868L36.1812 13.6007L35.6188 14.1542L33.2158 16.5191L33.7782 17.0726L47.6721 30.7465L48.618 31.6774L51.8134 28.5325L50.8548 27.6142ZM48.618 29.8156L35.0948 16.5191L36.3857 15.2486L49.8961 28.5451L48.618 29.8156Z" fill="white"/>
<path d="M54.1541 43.4331L53.2051 44.3671L65.054 56.0283L66.003 55.0944L54.1541 43.4331Z" fill="white"/>
<path d="M75.0994 50.2295L74.1504 51.1635L89.253 66.0269L90.202 65.0929L75.0994 50.2295Z" fill="white"/>
<path d="M82.2318 72.938L69.9101 60.8491V53.8927L57.0771 41.2629L58.023 40.3321L71.2522 53.3518V60.2957L83.1777 72.0071L82.2318 72.938Z" fill="white"/>
<path d="M68.0824 55.0876C67.6478 54.6599 67.0726 54.4586 66.4974 54.4712C66.1907 54.4838 65.8711 54.5593 65.6027 54.6851C65.526 54.7228 65.4621 54.7731 65.3982 54.8109C65.3854 54.8234 65.3854 54.8235 65.3854 54.8235C65.296 54.8738 65.2193 54.9367 65.1553 55.0121C65.117 55.0373 65.0914 55.0625 65.0531 55.0876C64.8869 55.2512 64.7591 55.4398 64.6569 55.6285C64.2478 56.421 64.3756 57.4022 65.0531 58.0564C65.8839 58.874 67.2516 58.874 68.0824 58.0564C68.1719 57.9557 68.2741 57.8551 68.338 57.7419L68.3508 57.7293C68.9004 56.9242 68.811 55.8172 68.0824 55.0876ZM65.9989 57.1381C65.6794 56.8362 65.6794 56.333 65.9989 56.0311C66.1012 55.9304 66.229 55.8676 66.3568 55.8298C66.6253 55.7795 66.9065 55.8424 67.111 56.0311C67.3155 56.2324 67.3922 56.5343 67.3155 56.7859C67.2899 56.9116 67.2132 57.0374 67.111 57.1381C66.817 57.4526 66.3057 57.4526 65.9989 57.1381Z" fill="white"/>
<path d="M83.0364 62.9118C82.6018 62.4841 82.0266 62.2829 81.4642 62.2954C81.1575 62.308 80.8379 62.3709 80.5695 62.5093H80.5567C80.4673 62.5596 80.3906 62.5974 80.3139 62.6477C80.2372 62.698 80.1733 62.7483 80.1094 62.8112C80.071 62.8364 80.0455 62.8615 80.0199 62.8993C79.8537 63.0628 79.7259 63.2515 79.6236 63.4402C79.2146 64.2201 79.3425 65.2013 80.0199 65.868C80.8507 66.6857 82.2184 66.6857 83.0492 65.868C83.1387 65.78 83.2154 65.6919 83.2793 65.5913C83.2793 65.5913 83.292 65.5913 83.292 65.5787C83.8672 64.7736 83.7778 63.6415 83.0364 62.9118ZM80.9657 64.9497C80.659 64.6478 80.659 64.1446 80.9657 63.8427C81.068 63.7421 81.1958 63.6666 81.3236 63.6415C81.5921 63.5786 81.886 63.6415 82.0905 63.8427C82.2951 64.044 82.3717 64.3333 82.2951 64.5975C82.2695 64.7233 82.2056 64.8365 82.0905 64.9497C81.7838 65.2642 81.2725 65.2642 80.9657 64.9497Z" fill="#112D49"/>
<path d="M75.0274 48.2568C74.2861 47.5272 73.1485 47.4517 72.3177 48.0178C72.2154 48.0807 72.1004 48.1688 71.9981 48.2568C71.1673 49.0745 71.1673 50.4205 71.9981 51.2382C72.6883 51.9175 73.7492 52.0433 74.5673 51.5652C74.7334 51.4772 74.8868 51.364 75.0274 51.2382C75.0785 51.1753 75.1425 51.125 75.1808 51.0621C75.2191 51.0243 75.2575 50.9866 75.283 50.9363C75.347 50.8356 75.4109 50.7224 75.4748 50.5966C75.6026 50.3199 75.6537 50.0054 75.6409 49.6909C75.6282 49.1751 75.4236 48.6468 75.0274 48.2568ZM72.944 49.1877C73.0462 49.0871 73.174 49.0242 73.3019 48.9864C73.5703 48.911 73.8643 48.9739 74.0688 49.1877C74.2733 49.389 74.35 49.6783 74.2733 49.9425C74.2477 50.0683 74.171 50.1941 74.0688 50.2947C73.762 50.5966 73.2507 50.5966 72.944 50.2947C72.6372 49.9928 72.6372 49.4896 72.944 49.1877Z" fill="white"/>
<path d="M91.5763 57.4776C91.1417 57.0499 90.5665 56.8487 90.0041 56.8612C89.6974 56.8738 89.3906 56.9493 89.1094 57.0877C89.0327 57.1254 88.9432 57.1757 88.8665 57.226C88.7899 57.2638 88.7132 57.3141 88.6493 57.3896C88.6237 57.4147 88.5853 57.4399 88.547 57.4651C88.3808 57.6286 88.2402 57.8047 88.1508 58.006V58.0185C87.7545 58.8111 87.8823 59.7923 88.547 60.4464C89.3778 61.2641 90.7455 61.2641 91.5763 60.4464C91.6658 60.3458 91.7552 60.2577 91.8319 60.1445C92.3943 59.3268 92.3176 58.2072 91.5763 57.4776ZM89.4929 59.5155C89.1861 59.2136 89.1861 58.7104 89.4929 58.4085C89.5951 58.3079 89.7229 58.245 89.8507 58.2072C90.1192 58.1443 90.4131 58.2072 90.6177 58.4085C90.8222 58.6098 90.8989 58.9117 90.8222 59.1759C90.7966 59.3142 90.7327 59.4274 90.6177 59.5281C90.3237 59.83 89.8124 59.83 89.4929 59.5155Z" fill="#112D49"/>
<path d="M82.5266 48.5714C82.0921 48.1437 81.5169 47.9424 80.9417 47.955C80.6349 47.9676 80.3154 48.0431 80.047 48.1689C79.9703 48.2066 79.9064 48.2569 79.8425 48.2947C79.8297 48.3072 79.8297 48.3072 79.8297 48.3072C79.7402 48.3701 79.6635 48.4205 79.5996 48.4834C79.5613 48.5085 79.5357 48.5337 79.5101 48.5714C79.344 48.7349 79.2161 48.9236 79.1139 49.1123C78.7049 49.9048 78.8327 50.886 79.5101 51.5402C80.3409 52.3578 81.7086 52.3578 82.5394 51.5402C82.6417 51.4521 82.7184 51.3389 82.7823 51.2257C83.3447 50.408 83.2552 49.2884 82.5266 48.5714ZM80.4432 50.6093C80.1364 50.3074 80.1364 49.8042 80.4432 49.5023C80.5454 49.4017 80.6733 49.3388 80.8011 49.301C81.0695 49.2381 81.3635 49.301 81.568 49.5023C81.7725 49.7036 81.8492 50.0055 81.7725 50.2696C81.7469 50.3954 81.6703 50.5087 81.568 50.6219C81.274 50.9238 80.7627 50.9238 80.4432 50.6093Z" fill="white"/>
<path d="M80.9679 62.9122L80.0221 63.8431L75.3184 59.2264V52.1819H76.6605V58.6729L80.9679 62.9122Z" fill="white"/>
<path d="M78.3066 46.4708H69.3848L60.5781 37.8036L61.5368 36.8727L69.9472 45.15H75.0727L63.7352 33.992L64.6811 33.0611L78.3066 46.4708Z" fill="white"/>
<path d="M77.1638 45.3363L76.2148 46.2703L79.4957 49.4992L80.4447 48.5652L77.1638 45.3363Z" fill="white"/>
<path d="M89.5069 57.4777L88.5482 58.4086L85.2889 55.2008H78.54V53.88H85.8385L89.5069 57.4777Z" fill="white"/>
<path d="M84.2434 43.6781L82.2623 45.628L81.6999 46.1814L80.7412 45.2506L83.2976 42.7347L84.2434 43.6781Z" fill="white"/>
<path d="M65.581 60.1668L63.0322 62.6752L63.9812 63.6091L66.5299 61.1008L65.581 60.1668Z" fill="white"/>
<path d="M63.9881 60.1667L63.0391 61.1007L65.5878 63.6091L66.5368 62.6751L63.9881 60.1667Z" fill="white"/>
<path d="M81.1354 42.1935L80.752 42.5709L80.1896 43.1244L70.0024 33.0986H66.3213L66.0912 33.325L65.5288 33.8785L65.1453 34.2559L64.5701 34.8094L61.6303 37.7152L61.0551 38.2687L59.0612 40.2437L55.5461 43.703L54.9838 44.244L54.6003 44.6339L54.0379 45.1874L53.8078 45.4138L53.2454 45.9799V49.5902L62.6273 58.8361L61.6814 59.767L51.9033 50.1437V45.4264L52.4529 44.8855L53.092 44.2565V44.244L53.6544 43.703L54.0379 43.3257V43.3131L54.6003 42.7722L63.6243 33.8785L65.7588 31.7777H70.552L81.1354 42.1935Z" fill="white"/>
<path d="M95.388 56.2071V60.9244L94.6594 61.654L94.0842 62.2075L92.7421 63.5284L84.7023 71.4408L84.2166 71.9188L84.1399 72.0069L83.3602 72.7617L82.7978 73.3278L82.082 74.0196L81.5196 74.5731H76.7264L66.9355 64.9372L67.5107 64.3838L67.8942 64.0064L77.2888 73.2523H80.97L83.2707 70.988L88.7925 65.5662L89.3549 65.0127L90.3008 64.0693L93.2278 61.1886L94.0459 60.3835V60.3709V56.7606L83.8459 46.7222L84.4083 46.1687L84.7918 45.7913L95.388 56.2071Z" fill="#112D49"/>
<path d="M50.6321 23.2567L51.2037 22.6942L51.3596 22.8476H56.2827L56.4775 23.0393L58.0493 21.4797H58.0623H62.4138L67.3629 26.3632V28.6771H71.8574L82.7817 39.4285L87.8737 44.4398L89.0298 45.5776C89.7052 43.0208 90.056 40.3489 90.056 37.5876C90.056 20.0606 75.6244 5.85757 57.8155 5.85757C50.788 5.85757 44.4666 8.11678 39.1668 11.8753L50.6321 23.2567Z" fill="#73A4E0"/>
<path d="M65.9556 68.5068L65.1353 67.6994L60.0307 62.6757L49.0794 51.8978V47.4636H46.7095L41.7482 42.5809V38.2877L43.3368 36.7242L43.1415 36.532V31.3673L43.5582 30.9572L31.702 19.4065C27.8866 24.6224 25.8486 31.1366 25.8486 38.057C25.8486 55.6272 40.3158 69.8652 58.1686 69.8652C60.9813 69.8652 63.6465 69.4603 66.2618 68.7435L65.9556 68.5068Z" fill="#73A4E0"/>
<path d="M82.0381 58.9361L82.9121 57.9044L89.7559 64.6544L88.7818 65.5985L82.0381 58.9361Z" fill="#112D49"/>
<path d="M74.5059 65.3654L75.5957 64.5451L82.75 71.5724L81.7652 72.5534L74.5059 65.3654Z" fill="#112D49"/>
<path d="M79.5449 61.5021L78.5801 62.4435L79.9941 63.8712L80.9941 62.9279L79.5449 61.5021Z" fill="#112D49"/>
<path d="M85.3027 55.2443L84.8975 55.2061C84.8975 55.174 85.258 54.302 85.4382 53.87H85.8524L89.6465 57.5685L88.5581 58.4195L85.3027 55.2443Z" fill="#112D49"/>
<path d="M70.957 67.0273L67.8926 63.9982L66.9512 64.9123L69.6602 67.6172L70.957 67.0273Z" fill="white"/>
<path d="M87.4336 50.2539L87.9727 48.8984L84.8083 45.7238L83.8652 46.7409L87.4336 50.2539Z" fill="white"/>
</svg>
