<svg width="116" height="113" viewBox="0 0 116 113" fill="none" xmlns="http://www.w3.org/2000/svg">
<path d="M63.0738 36.3794H60.1793L43.399 52.8593L42.8123 53.4355L41.9517 54.2806L38.6074 57.5651V60.4078L43.4968 65.2096H46.3913L47.9559 63.673L48.8164 62.8471L49.4031 62.2517L50.2637 61.4258L64.0712 47.8462L64.9317 47.001L65.5185 46.4248L66.379 45.5797L67.9436 44.0623V41.2196L63.0738 36.3794ZM66.7506 42.3529L65.9096 43.1788V43.198L64.9513 44.1392L64.0908 44.9843L47.3887 61.4066L46.5282 62.2325L45.5699 63.1736H44.3769L40.7001 59.5627V58.391L43.4381 55.702L44.2986 54.8569L57.4608 41.9303L58.3213 41.0852L61.0594 38.3962L61.9003 37.5703H63.0933L66.7702 41.1812V42.3529H66.7506Z" fill="#73A4E0"/>
<path d="M97.4736 107.772L96.6131 108.617H98.0799L98.2168 108.482L97.4736 107.772ZM97.4736 107.772L96.6131 108.617H98.0799L98.2168 108.482L97.4736 107.772ZM97.4736 107.772L96.6131 108.617H98.0799L98.2168 108.482L97.4736 107.772ZM97.4736 107.772L96.6131 108.617H98.0799L98.2168 108.482L97.4736 107.772ZM97.4736 107.772L96.6131 108.617H98.0799L98.2168 108.482L97.4736 107.772ZM114.176 92.5593L112.865 91.2725L112.005 92.1176L107.526 96.5161L106.079 97.9374L105.218 98.7825L96.7695 107.061L95.3223 108.482L96.0459 109.193L96.6522 109.788H102.793L113.354 99.4164L113.335 93.6542L114.195 92.809V92.5593H114.176ZM112.122 94.845V97.7646L101.913 107.791H98.9404L98.2168 108.501L97.4931 107.791H98.9599L111.281 95.6901L112.122 94.845V93.4045L112.846 94.1152L112.122 94.845ZM97.4736 107.772L96.6131 108.617H98.0799L98.2168 108.482L97.4736 107.772ZM97.4736 107.772L96.6131 108.617H98.0799L98.2168 108.482L97.4736 107.772ZM97.4736 107.772L96.6131 108.617H98.0799L98.2168 108.482L97.4736 107.772ZM97.4736 107.772L96.6131 108.617H98.0799L98.2168 108.482L97.4736 107.772Z" fill="#73A4E0"/>
<path d="M69.739 48.8642L68.2917 50.2855L67.5485 49.5748L64.9278 47.0011L64.0673 47.8462L50.2597 61.4258L52.8804 63.9995L53.6041 64.691L52.7435 65.5553L52.1568 66.1316L51.6092 65.5938L51.4332 65.4209L47.3652 61.4258L64.0673 44.9843L64.9278 44.1392L66.3751 45.5605L65.5146 46.4248L68.1353 48.9986L69.0153 48.1535L69.1914 48.3264L69.739 48.8642Z" fill="#73A4E0"/>
<path d="M56.8341 39.6633L55.9736 40.5085L53.8614 38.4341H49.6174L48.0332 39.9899L47.1727 40.835L46.586 41.4112L45.7255 42.2563L43.1634 44.7725L42.3029 45.6176L40.7188 47.1734V51.3414L44.2782 54.8371L57.4404 41.9106L58.3009 41.0655L56.8341 39.6633ZM44.2586 52.0137L42.7527 50.5347V48.0378L51.3189 39.6249H53.8614L55.3673 41.1039L44.2586 52.0137Z" fill="#73A4E0"/>
<path d="M25.9116 19.9948L25.4031 18.7464L22.4499 11.6397L6.60834 0L1.54297 4.97471L13.3948 20.5326L20.6506 23.433L21.8827 23.9131L22.7237 24.2397L26.2636 20.7631V20.7439L26.4983 20.5326L25.9116 19.9948ZM23.8189 20.3022L22.2152 21.8772L14.7051 18.8808L4.26145 5.16678L6.80392 2.66982L7.64489 1.8247L21.6089 12.0814L24.6794 19.4762L23.8189 20.3022Z" fill="#73A4E0"/>
<path d="M48.0205 39.9892L47.16 40.8344L26.4878 20.5514L25.9401 20.0136L25.4317 18.7651L25.0601 19.1301L24.7276 19.4566L23.8671 20.3017L21.0508 23.0676L21.9113 23.9127L22.498 24.4889L43.1703 44.7911L44.6175 46.2124L49.5069 41.4106L48.0205 39.9892ZM45.7127 42.2749L44.598 43.3697L23.9257 23.0676L25.901 21.1276L46.5733 41.4298L45.7127 42.2749Z" fill="#73A4E0"/>
<path d="M53.0517 64.1511L51.5996 65.5771L69.7295 83.3825L71.1816 81.9565L53.0517 64.1511Z" fill="#73A4E0"/>
<path d="M85.1181 74.5144L83.666 75.9404L106.774 98.6351L108.226 97.2091L85.1181 74.5144Z" fill="#73A4E0"/>
<path d="M96.0301 109.212L77.1767 90.7539V80.1323L57.541 60.8481L58.9883 59.4268L79.2302 79.2871V89.9088L97.4773 107.791L96.0301 109.212Z" fill="#73A4E0"/>
<path d="M74.3602 81.977C73.3432 80.959 71.7982 80.7477 70.5856 81.3815C70.2922 81.5352 69.9989 81.7465 69.7446 81.977C69.7055 82.0154 69.6468 82.073 69.6273 82.1114C69.5295 82.1883 69.4513 82.2843 69.3926 82.3803C69.373 82.3995 69.373 82.3995 69.373 82.3995C69.2752 82.534 69.197 82.6492 69.1188 82.7837C68.9232 83.2062 68.8059 83.6672 68.7863 84.1282C68.7472 84.9733 69.0797 85.8376 69.7446 86.4907C70.8789 87.6047 72.6391 87.72 73.9104 86.8556L73.9299 86.8364C74.0864 86.7596 74.2428 86.6251 74.3602 86.4907C75.651 85.2614 75.651 83.2254 74.3602 81.977ZM72.9129 85.0886C72.7565 85.2422 72.5609 85.3383 72.3653 85.3959C71.9546 85.5111 71.5048 85.4151 71.1919 85.0886C70.879 84.7812 70.7616 84.3203 70.879 83.9169C70.9181 83.7248 71.0159 83.552 71.1919 83.3983C71.6613 82.9181 72.4436 82.9181 72.9129 83.3983C73.4019 83.8593 73.4019 84.6276 72.9129 85.0886Z" fill="#73A4E0"/>
<path d="M97.2605 93.9053C96.2436 92.9065 94.7181 92.6953 93.4859 93.3099C93.173 93.4636 92.8992 93.6556 92.645 93.9053C92.6058 93.9437 92.5667 93.9822 92.5081 94.0398C92.4103 94.1358 92.332 94.2511 92.2538 94.3471C92.1756 94.4623 92.1169 94.5776 92.0387 94.712C91.8236 95.1346 91.7258 95.6148 91.7062 96.0758C91.6671 96.9209 91.9996 97.766 92.6645 98.419C93.7793 99.5331 95.5004 99.6675 96.7912 98.8416C96.7912 98.8416 96.8107 98.8416 96.8107 98.8224C96.9867 98.7072 97.1432 98.5727 97.2996 98.419C98.5513 97.1898 98.5513 95.1538 97.2605 93.9053ZM95.8133 97.0169C95.6568 97.1706 95.4612 97.2858 95.2657 97.3242C94.8745 97.4203 94.4247 97.3242 94.0922 97.0169C93.7793 96.7096 93.6815 96.2678 93.7793 95.8645C93.8184 95.6724 93.9358 95.4995 94.0922 95.3267C94.5812 94.8465 95.3439 94.8465 95.8133 95.3267C96.2827 95.7876 96.3022 96.556 95.8133 97.0169Z" fill="#73A4E0"/>
<path d="M85.003 71.5277C83.7318 70.2792 81.6391 70.2792 80.3679 71.5277C80.2114 71.6621 80.0941 71.835 79.9963 72.0078C79.1162 73.2563 79.2531 74.9658 80.3679 76.0798C81.0915 76.7905 82.0498 77.0786 82.9886 77.0017C83.458 76.9633 83.8882 76.8289 84.2989 76.5984C84.3772 76.56 84.4554 76.5024 84.5141 76.464C84.6705 76.3487 84.827 76.2335 84.9443 76.099C84.9639 76.099 84.9639 76.099 84.9834 76.0798C85.2768 75.7725 85.5115 75.446 85.6484 75.081C86.2156 73.8902 85.9809 72.488 85.003 71.5277ZM83.0081 74.9466C82.617 75.0426 82.1672 74.9466 81.8347 74.6393C81.5218 74.3319 81.424 73.871 81.5218 73.4868C81.5609 73.2947 81.6587 73.1027 81.8347 72.949C82.3236 72.4688 83.0864 72.488 83.5557 72.949C84.0251 73.41 84.0251 74.1783 83.5557 74.6393C83.3993 74.8121 83.2037 74.9082 83.0081 74.9466Z" fill="#73A4E0"/>
<path d="M110.319 85.607C109.302 84.6082 107.757 84.3969 106.525 85.0116C106.212 85.1652 105.938 85.3765 105.684 85.607C105.645 85.6454 105.586 85.703 105.547 85.7414C105.449 85.8375 105.351 85.9527 105.293 86.068C105.195 86.2024 105.117 86.3177 105.078 86.4329C104.862 86.8555 104.745 87.3164 104.725 87.7774C104.706 88.6225 105.019 89.4869 105.684 90.1399C106.818 91.2539 108.578 91.3692 109.85 90.5241C110.026 90.4088 110.162 90.2744 110.319 90.1399C111.59 88.8914 111.59 86.8555 110.319 85.607ZM108.872 88.7186C108.715 88.8722 108.52 88.9875 108.324 89.0259C107.913 89.1219 107.483 89.0259 107.151 88.7186C106.838 88.4112 106.74 87.9695 106.838 87.5661C106.877 87.3741 106.975 87.2012 107.151 87.0283C107.64 86.5481 108.402 86.5481 108.872 87.0283C109.341 87.5085 109.341 88.2576 108.872 88.7186Z" fill="#73A4E0"/>
<path d="M96.4774 71.9893C95.4604 70.9905 93.9154 70.7793 92.6833 71.3939C92.3899 71.5475 92.0965 71.7588 91.8423 71.9893C91.8032 72.0277 91.764 72.0853 91.7249 72.1238C91.6271 72.2198 91.5489 72.2966 91.4903 72.3927C91.4707 72.4119 91.4707 72.4119 91.4707 72.4119C91.3924 72.5463 91.2947 72.6616 91.2164 72.796C91.0209 73.2186 90.9035 73.6796 90.884 74.1405C90.8448 74.9857 91.1773 75.85 91.8423 76.503C92.9766 77.6171 94.7172 77.7323 95.9885 76.868C96.1449 76.7719 96.3209 76.6375 96.4774 76.503C97.7486 75.293 97.7486 73.257 96.4774 71.9893ZM95.0301 75.1201C94.8737 75.2738 94.6781 75.3698 94.4825 75.4274C94.0914 75.5235 93.6416 75.4274 93.3091 75.1201C92.9962 74.8128 92.8788 74.371 92.9962 73.9677C93.0353 73.7756 93.1331 73.6027 93.3091 73.4299C93.798 72.9497 94.5608 72.9497 95.0301 73.4299C95.4995 73.8908 95.4995 74.6591 95.0301 75.1201Z" fill="#73A4E0"/>
<path d="M94.0917 93.9044L92.6444 95.3257L85.4473 88.2766V77.5205H87.5008V87.4315L94.0917 93.9044Z" fill="#73A4E0"/>
<path d="M90.0442 68.8007H76.3735L62.918 55.5668L64.3652 54.1455L77.234 66.7839H85.0766L67.7291 49.747L69.1764 48.3257L90.0442 68.8007Z" fill="#73A4E0"/>
<path d="M88.2841 67.0705L86.832 68.4966L91.852 73.4267L93.304 72.0006L88.2841 67.0705Z" fill="#73A4E0"/>
<path d="M107.159 85.6071L105.692 87.0284L100.705 82.1305H90.3789V80.1138H101.546L107.159 85.6071Z" fill="#73A4E0"/>
<path d="M96.7903 63.9627L93.7617 66.937L95.2138 68.3631L98.2423 65.3887L96.7903 63.9627Z" fill="#73A4E0"/>
<path d="M70.5541 89.7145L66.6543 93.5444L68.1064 94.9705L72.0061 91.1405L70.5541 89.7145Z" fill="#73A4E0"/>
<path d="M68.1181 89.7151L66.666 91.1411L70.5658 94.9711L72.0179 93.545L68.1181 89.7151Z" fill="#73A4E0"/>
<path d="M93.4885 63.1156L92.9018 63.6918L77.3145 48.3836H71.6819L70.8214 49.2287L70.4694 49.5744L69.6089 50.4195L69.0221 50.9958L68.142 51.8409L63.6438 56.2778L62.7637 57.1229L59.7128 60.1385L54.3345 65.4205L53.4739 66.2464L52.8872 66.8418L52.0267 67.6869L51.6747 68.0327V73.5644L66.0298 87.6818L64.5826 89.1031L49.6016 74.4095V67.226L50.5794 66.2656V66.2464L51.44 65.4205L52.0267 64.8443V64.825L52.8872 63.9991L66.6948 50.4195L69.9609 47.2119H77.2949L93.4885 63.1156Z" fill="#73A4E0"/>
<path d="M115.288 84.5126V91.7153L114.173 92.8293L113.293 93.6745L111.239 95.6912L98.9376 107.773L98.1944 108.503L98.0771 108.637L96.8841 109.789L96.0235 110.654L94.9283 111.71H87.6138L72.6328 96.9973L73.2195 96.4211L74.0801 95.576L88.4548 109.693H94.0873L96.7471 107.081L105.176 98.7836L106.037 97.9385L107.504 96.5172L111.982 92.1187L113.234 90.8894V90.8702L114.095 90.0251V84.5126L98.4878 69.1851L99.0745 68.6089L115.288 84.5126Z" fill="#73A4E0"/>
<path d="M63.0769 36.3794H60.1628L56.8381 39.6638L43.4021 52.8593L42.8154 53.4355L41.9549 54.2806L38.6105 57.5651L37.75 58.4102V61.2529L42.6394 66.0547H45.5339L46.3944 65.2096L47.959 63.673L48.8195 62.8471L49.4062 62.2517L50.2668 61.4258L64.0743 47.8462L64.9349 47.001L65.5216 46.4248L66.3821 45.5797L67.9467 44.0623V41.2196L63.0769 36.3794ZM64.0743 44.9843L47.3723 61.4066L46.5117 62.2325L44.6733 64.038H43.4803L39.784 60.4462V59.2745L40.6445 58.4294L43.3825 55.7404L44.2431 54.8953L57.4052 41.9687L58.2658 41.1236L60.9843 38.4346H62.1968L65.8736 42.0648V43.2364L64.9153 44.1776L64.0743 44.9843Z" fill="white"/>
<path d="M113.301 93.6738V93.4241L111.99 92.1372L107.512 96.5357L106.064 97.957L105.204 98.8021L96.755 107.081L94.4473 109.347L95.7576 110.634H101.899L113.32 99.4168L113.301 93.6738ZM98.0849 108.636L98.2218 108.502L98.9455 107.791L111.267 95.6906V94.25L111.99 94.9607L111.267 95.6714V98.5717L101.938 107.753L101.077 108.598H98.0849L97.3613 109.309L96.6377 108.598H98.0849V108.636Z" fill="white"/>
<path d="M68.8835 49.7079L67.4363 51.1293L66.6931 50.4186L64.0724 47.8448L50.2648 61.4244L49.4043 62.2503L52.025 64.8241V64.8433L52.201 64.997V65.0162H52.2206L52.7486 65.554L52.1619 66.1302L51.3014 66.9753L50.7538 66.4183L50.5777 66.2646V66.2454L47.957 63.6716L46.4902 62.2503L47.3703 61.4244L64.0724 44.9829L68.8835 49.7079Z" fill="white"/>
<path d="M53.8645 38.4341H49.6205L48.0363 39.9899L47.1758 40.835L46.5891 41.4112L45.7286 42.2563L43.1665 44.7725L42.306 45.6176L40.7219 47.1734L39.8613 48.0185V52.1865L43.4208 55.6823L44.2813 54.8371L57.4435 41.9106L53.8645 38.4341ZM43.4012 52.8588L41.8953 51.3798V48.8829L50.4615 40.4701H53.0039L54.5099 41.949L43.4012 52.8588Z" fill="white"/>
<path d="M25.9205 19.9948L25.412 18.7464L22.4588 11.6397L6.61731 0L0.691406 5.81982L12.5432 21.3586L21.0312 24.7583L21.8721 25.0848L26.2726 20.7631V20.7439L25.9205 19.9948ZM21.3636 22.7223L13.834 19.7067L3.39033 6.01189L4.25087 5.16678L6.79333 2.66982L20.7378 12.9265L23.8083 20.3214L21.3636 22.7223Z" fill="white"/>
<path d="M47.1592 40.8544L26.487 20.5522L25.0397 19.1309L24.7073 19.4574L23.8467 20.3025L20.1699 23.9135L21.0305 24.7586L42.2894 45.637L43.7367 47.0583L48.626 42.2565L47.1592 40.8544ZM43.7367 44.2156L23.0449 23.9135L25.0202 21.9735L45.6924 42.2757L43.7367 44.2156Z" fill="white"/>
<path d="M52.206 65.008L50.7539 66.4341L68.8838 84.2394L70.3359 82.8134L52.206 65.008Z" fill="white"/>
<path d="M84.2548 75.385L82.8027 76.811L105.911 99.5057L107.363 98.0797L84.2548 75.385Z" fill="white"/>
<path d="M95.1668 110.057L76.3134 91.5991V80.9775L56.6777 61.6933L58.125 60.272L78.3669 80.1516V90.754L96.6141 108.636L95.1668 110.057Z" fill="white"/>
<path d="M73.5179 82.8029C72.8529 82.1498 71.9728 81.8425 71.0928 81.8617C70.6234 81.8809 70.1344 81.9961 69.7237 82.1882C69.6064 82.2458 69.5086 82.3227 69.4108 82.3803C69.3913 82.3995 69.3913 82.3995 69.3913 82.3995C69.2544 82.4763 69.137 82.5724 69.0392 82.6876C68.9805 82.726 68.9414 82.7644 68.8827 82.8029C68.6285 83.0525 68.4329 83.3406 68.2765 83.6288C67.6506 84.8388 67.8462 86.337 68.8827 87.3358C70.154 88.5843 72.2466 88.5843 73.5179 87.3358C73.6548 87.1821 73.8112 87.0285 73.909 86.8556L73.9286 86.8364C74.7696 85.6071 74.6327 83.9169 73.5179 82.8029ZM70.33 85.9336C69.8411 85.4727 69.8411 84.7044 70.33 84.2434C70.4865 84.0897 70.682 83.9937 70.8776 83.9361C71.2883 83.8593 71.7186 83.9553 72.0315 84.2434C72.3444 84.5507 72.4618 85.0117 72.3444 85.3958C72.3053 85.5879 72.188 85.78 72.0315 85.9336C71.5817 86.4138 70.7994 86.4138 70.33 85.9336Z" fill="white"/>
<path d="M96.4007 94.7491C95.7357 94.0961 94.8556 93.7888 93.9951 93.808C93.5257 93.8272 93.0368 93.9232 92.6261 94.1345H92.6065C92.4696 94.2113 92.3523 94.269 92.2349 94.3458C92.1176 94.4226 92.0198 94.4995 91.922 94.5955C91.8633 94.6339 91.8242 94.6723 91.7851 94.7299C91.5309 94.9796 91.3353 95.2678 91.1788 95.5559C90.553 96.7467 90.7486 98.2449 91.7851 99.2629C93.0563 100.511 95.149 100.511 96.4202 99.2629C96.5571 99.1284 96.6745 98.994 96.7723 98.8403C96.7723 98.8403 96.7918 98.8403 96.7918 98.8211C97.6719 97.5918 97.535 95.8632 96.4007 94.7491ZM93.2323 97.8607C92.763 97.3998 92.763 96.6315 93.2323 96.1705C93.3888 96.0168 93.5844 95.9016 93.78 95.8632C94.1907 95.7671 94.6405 95.8632 94.9534 96.1705C95.2663 96.4778 95.3837 96.9196 95.2663 97.3229C95.2272 97.515 95.1294 97.6879 94.9534 97.8607C94.484 98.3409 93.7017 98.3409 93.2323 97.8607Z" fill="white"/>
<path d="M84.1471 72.3733C83.0128 71.2592 81.2722 71.144 80.001 72.0083C79.8445 72.1044 79.6685 72.2388 79.512 72.3733C78.2408 73.6217 78.2408 75.6769 79.512 76.9254C80.5681 77.9626 82.1914 78.1547 83.4431 77.4248C83.6973 77.2904 83.932 77.1175 84.1471 76.9254C84.2254 76.8294 84.3232 76.7526 84.3818 76.6565C84.4405 76.5989 84.4992 76.5413 84.5383 76.4644C84.6361 76.3108 84.7339 76.1379 84.8316 75.9458C85.0272 75.5233 85.1055 75.0431 85.0859 74.5629C85.0663 73.7754 84.7534 72.9687 84.1471 72.3733ZM80.9593 73.7946C81.1157 73.641 81.3113 73.5449 81.5069 73.4873C81.9176 73.3721 82.3674 73.4681 82.6803 73.7946C82.9932 74.1019 83.1106 74.5437 82.9933 74.9471C82.9541 75.1391 82.8368 75.3312 82.6803 75.4849C82.2109 75.9458 81.4287 75.9458 80.9593 75.4849C80.4899 75.0239 80.4899 74.2556 80.9593 73.7946Z" fill="white"/>
<path d="M109.463 86.4523C108.798 85.7992 107.918 85.4919 107.057 85.5111C106.588 85.5303 106.119 85.6456 105.688 85.8568C105.571 85.9145 105.434 85.9913 105.317 86.0681C105.2 86.1257 105.082 86.2026 104.984 86.3178C104.945 86.3562 104.887 86.3946 104.828 86.4331C104.574 86.6828 104.359 86.9516 104.222 87.259V87.2782C103.615 88.4882 103.811 89.9864 104.828 90.9852C106.099 92.2337 108.192 92.2337 109.463 90.9852C109.6 90.8315 109.737 90.6971 109.854 90.5242C110.715 89.2757 110.597 87.5663 109.463 86.4523ZM106.275 89.5638C105.806 89.1029 105.806 88.3346 106.275 87.8736C106.432 87.72 106.627 87.6239 106.823 87.5663C107.233 87.4702 107.683 87.5663 107.996 87.8736C108.309 88.1809 108.427 88.6419 108.309 89.0453C108.27 89.2565 108.172 89.4294 107.996 89.583C107.546 90.044 106.764 90.044 106.275 89.5638Z" fill="white"/>
<path d="M95.6194 72.8536C94.9545 72.2006 94.0744 71.8933 93.1943 71.9125C92.7249 71.9317 92.236 72.0469 91.8253 72.239C91.7079 72.2966 91.6101 72.3734 91.5123 72.4311C91.4928 72.4503 91.4928 72.4503 91.4928 72.4503C91.3559 72.5463 91.2385 72.6231 91.1408 72.7192C91.0821 72.7576 91.043 72.796 91.0039 72.8536C90.7496 73.1033 90.554 73.3914 90.3976 73.6795C89.7717 74.8896 89.9673 76.3878 91.0039 77.3865C92.2751 78.635 94.3677 78.635 95.639 77.3865C95.7954 77.2521 95.9128 77.0792 96.0106 76.9064C96.8711 75.6579 96.7342 73.9484 95.6194 72.8536ZM92.4315 75.9652C91.9622 75.5042 91.9622 74.7359 92.4315 74.275C92.588 74.1213 92.7836 74.0253 92.9792 73.9677C93.3899 73.8716 93.8397 73.9677 94.1526 74.275C94.4655 74.5823 94.5829 75.0433 94.4655 75.4466C94.4264 75.6387 94.3091 75.8116 94.1526 75.9844C93.7028 76.4454 92.9205 76.4454 92.4315 75.9652Z" fill="white"/>
<path d="M93.2342 94.7496L91.787 96.1709L84.5898 89.1218V78.3657H86.6434V88.2767L93.2342 94.7496Z" fill="white"/>
<path d="M89.1633 69.6459H75.5122L62.0371 56.4121L63.5039 54.9907L76.3727 67.6292H84.2153L66.8678 50.5922L68.3151 49.1709L89.1633 69.6459Z" fill="white"/>
<path d="M87.4149 67.9143L85.9629 69.3403L90.9828 74.2704L92.4349 72.8444L87.4149 67.9143Z" fill="white"/>
<path d="M106.302 86.4528L104.835 87.8741L99.8478 82.9762H89.5215V80.9595H100.689L106.302 86.4528Z" fill="white"/>
<path d="M98.2455 65.3815L95.2141 68.3586L94.3535 69.2037L92.8867 67.7824L96.7982 63.9409L98.2455 65.3815Z" fill="white"/>
<path d="M69.6908 90.5582L65.791 94.3882L67.2431 95.8142L71.1429 91.9843L69.6908 90.5582Z" fill="white"/>
<path d="M67.2548 90.5593L65.8027 91.9854L69.7025 95.8153L71.1546 94.3893L67.2548 90.5593Z" fill="white"/>
<path d="M93.4896 63.1156L92.9029 63.6918L92.0424 64.5369L76.4551 49.2287H70.8225L70.4705 49.5744L69.61 50.4195L69.0233 50.9958L68.1432 51.8409L63.645 56.2778L62.7649 57.1229L59.7139 60.1385L54.3356 65.4205L53.4751 66.2464L52.8883 66.8418L52.0278 67.6869L51.6758 68.0327L50.8153 68.897V74.4095L65.1704 88.5269L63.7232 89.9482L48.7617 75.2546V68.0519L49.6027 67.226L50.5806 66.2656V66.2464L51.4411 65.4205L52.0278 64.8443V64.825L52.8883 63.9991L66.6959 50.4195L69.962 47.2119H77.296L93.4896 63.1156Z" fill="white"/>
<path d="M115.299 84.5126V91.7153L114.184 92.8293L113.304 93.6745L111.25 95.6912L98.9485 107.773L98.2053 108.503L98.088 108.637L96.895 109.789L96.0345 110.654L94.9393 111.71L94.0787 112.555H86.7447L71.7637 97.8424L72.6438 96.9973L73.2305 96.4211L87.6052 110.539H93.2377L96.7581 107.081L105.207 98.8028L106.067 97.9577L107.515 96.5172L111.993 92.1187L113.245 90.8894V90.8702V85.3577L97.6382 70.0302L98.4987 69.1851L99.0854 68.6089L115.299 84.5126Z" fill="white"/>
<path d="M47.1582 34.7462L48.0188 33.901L48.2534 34.1315H55.6657L55.9591 34.4196L58.3255 32.0764H58.3451H64.8968L72.3482 39.4136V42.8901H79.1151L95.5629 59.0435L103.229 66.5727L104.97 68.2822C105.987 64.4407 106.515 60.4264 106.515 56.2776C106.515 29.9443 84.7868 8.60498 57.9735 8.60498C47.3929 8.60498 37.6337 11.9279 29.6543 17.5748L47.1582 34.7462Z" fill="#73A4E0"/>
<path d="M69.7018 101.915L68.4697 100.705L60.8032 93.1757L44.3553 77.0223V70.3766H40.7959L33.3445 63.0586V56.6241L35.7305 54.2808L35.4371 53.9927V46.2521L36.063 45.6375L18.5786 28.4854C12.8483 36.3027 9.46484 45.9064 9.46484 56.2784C9.46484 82.6116 31.1932 103.951 58.0064 103.951C62.2309 103.951 66.3184 103.413 70.2299 102.434L69.7018 101.915Z" fill="#73A4E0"/>
</svg>
