<svg width="40" height="32" viewBox="0 0 40 32" fill="none" xmlns="http://www.w3.org/2000/svg">
<path d="M0.195576 31.814V31.1152H2.26689C2.40023 31.1152 2.5158 31.085 2.61359 31.0203C2.71138 30.9599 2.79138 30.8779 2.84917 30.7744C2.90695 30.6751 2.93362 30.5673 2.93362 30.4595C2.93362 30.3387 2.90695 30.2308 2.84917 30.1316C2.79583 30.0324 2.71582 29.9548 2.61803 29.8987C2.52025 29.8426 2.40468 29.8124 2.27578 29.8124H1.41792C1.14678 29.8124 0.906756 29.7563 0.693402 29.6485C0.480048 29.5406 0.311142 29.3853 0.186685 29.1912C0.0622288 28.9971 0 28.7642 0 28.4967C0 28.2292 0.0577834 27.9963 0.177795 27.7936C0.297807 27.5908 0.457822 27.4312 0.666731 27.3147C0.871196 27.1983 1.10678 27.1422 1.36902 27.1422H3.44034V27.841H1.44458C1.32457 27.841 1.2179 27.8712 1.12011 27.9273C1.02232 27.9834 0.951204 28.061 0.897866 28.1559C0.844527 28.2508 0.817858 28.35 0.817858 28.4579C0.817858 28.57 0.844527 28.6693 0.897866 28.7598C0.951204 28.8504 1.02232 28.9238 1.12011 28.9798C1.21345 29.0359 1.32013 29.0618 1.44014 29.0618H2.32023C2.61359 29.0618 2.86695 29.1179 3.0803 29.23C3.29366 29.3422 3.45811 29.4932 3.57368 29.6916C3.68925 29.8857 3.74703 30.11 3.74703 30.3646C3.74703 30.6622 3.6848 30.921 3.56479 31.1367C3.44478 31.3524 3.28032 31.5206 3.07141 31.6371C2.8625 31.7536 2.62692 31.814 2.36467 31.814H0.195576Z" fill="white"/>
<path d="M7.98176 31.8917C7.64839 31.8917 7.35947 31.8097 7.115 31.6501C6.87054 31.4905 6.68385 31.2748 6.55495 31.0073C6.42605 30.7399 6.35938 30.4422 6.35938 30.1144C6.35938 29.7779 6.43494 29.4716 6.58162 29.2042C6.73274 28.9367 6.94165 28.721 7.22168 28.5657C7.50171 28.4105 7.83063 28.3285 8.21733 28.3285C8.59959 28.3285 8.92407 28.4061 9.19076 28.5657C9.45745 28.7254 9.66636 28.9367 9.8086 29.2042C9.95083 29.476 10.0264 29.7736 10.0264 30.1014V31.8097H9.23521V31.1756H9.22187C9.1552 31.3007 9.06186 31.4171 8.95518 31.525C8.84406 31.6328 8.71071 31.7234 8.5507 31.7881C8.38624 31.8615 8.19511 31.8917 7.98176 31.8917ZM8.19511 31.2403C8.39957 31.2403 8.58181 31.1885 8.73294 31.0893C8.88851 30.9901 9.00852 30.852 9.09297 30.6838C9.18187 30.5113 9.22187 30.3214 9.21743 30.1058C9.21743 29.8944 9.17743 29.7003 9.09297 29.5363C9.00852 29.3681 8.89295 29.2344 8.74183 29.1352C8.5907 29.0359 8.40846 28.9842 8.19955 28.9842C7.98175 28.9842 7.79063 29.0359 7.63506 29.1352C7.47948 29.2344 7.35947 29.3681 7.27947 29.5407C7.19501 29.7089 7.15501 29.903 7.15501 30.1144C7.15501 30.3258 7.19501 30.5156 7.27947 30.6838C7.36392 30.8564 7.47948 30.9901 7.63506 31.0893C7.78618 31.1885 7.97286 31.2403 8.19511 31.2403Z" fill="white"/>
<path d="M13.0371 31.814V26.9395H13.8283V29.7693H14.5839L15.464 28.4062H16.3397L15.3573 29.8901C15.6729 29.9979 15.9174 30.1748 16.0952 30.4293C16.2685 30.6795 16.3574 30.9685 16.3574 31.2921V31.814H15.5662V31.2921C15.5662 31.1325 15.5262 30.9858 15.4507 30.8564C15.3751 30.727 15.2684 30.6234 15.1351 30.5458C15.0017 30.4681 14.8506 30.4336 14.6817 30.4336H13.8372V31.814H13.0371Z" fill="white"/>
<path d="M19.2139 31.814V29.3767C19.2139 29.0747 19.3028 28.8375 19.4806 28.6649C19.6584 28.4924 19.9028 28.4061 20.214 28.4061H21.0585V29.0618H20.3562C20.2451 29.0618 20.1606 29.092 20.0984 29.1567C20.0362 29.2171 20.0051 29.3034 20.0051 29.4112V31.814H19.2139Z" fill="white"/>
<path d="M25.34 31.8916C24.9756 31.8916 24.6555 31.814 24.3755 31.6544C24.0955 31.4948 23.8732 31.2834 23.7132 31.0116C23.5488 30.7442 23.4688 30.4422 23.4688 30.1057C23.4688 29.7736 23.5488 29.4716 23.7132 29.1998C23.8777 28.9324 24.0955 28.7167 24.3755 28.5614C24.6555 28.4018 24.9756 28.3242 25.34 28.3242C25.6956 28.3242 26.0157 28.4018 26.2957 28.5614C26.5757 28.721 26.798 28.9324 26.958 29.1998C27.118 29.4673 27.2024 29.7693 27.2024 30.1057C27.2024 30.4379 27.1224 30.7399 26.958 31.0116C26.7935 31.2791 26.5757 31.4948 26.2957 31.6544C26.0201 31.814 25.7001 31.8916 25.34 31.8916ZM25.34 31.2403C25.5534 31.2403 25.7445 31.1885 25.9045 31.0893C26.0646 30.9901 26.189 30.8563 26.2779 30.6838C26.3668 30.5155 26.4068 30.3214 26.4068 30.1101C26.4068 29.903 26.3624 29.7089 26.2779 29.5406C26.189 29.3681 26.069 29.2344 25.9045 29.1351C25.7445 29.0359 25.5578 28.9842 25.34 28.9842C25.1178 28.9842 24.9311 29.0359 24.7711 29.1351C24.6111 29.2344 24.4911 29.3681 24.3977 29.5406C24.3088 29.7089 24.2644 29.903 24.2644 30.1144C24.2644 30.3257 24.3088 30.5155 24.3977 30.6838C24.4866 30.8563 24.6111 30.9901 24.7711 31.0893C24.9311 31.1885 25.1222 31.2403 25.34 31.2403Z" fill="white"/>
<path d="M31.6916 31.8916C31.3271 31.8916 31.0071 31.814 30.7271 31.6544C30.447 31.4948 30.2248 31.2834 30.0648 31.0116C29.9003 30.7442 29.8203 30.4422 29.8203 30.1057C29.8203 29.7736 29.9003 29.4716 30.0648 29.1998C30.2292 28.9324 30.447 28.7167 30.7271 28.5614C31.0071 28.4018 31.3271 28.3242 31.6916 28.3242C32.0472 28.3242 32.3672 28.4018 32.6473 28.5614C32.9273 28.721 33.1495 28.9324 33.3095 29.1998C33.4696 29.4673 33.554 29.7693 33.554 30.1057C33.554 30.4379 33.474 30.7399 33.3095 31.0116C33.1451 31.2791 32.9273 31.4948 32.6473 31.6544C32.3672 31.814 32.0472 31.8916 31.6916 31.8916ZM31.6916 31.2403C31.905 31.2403 32.0961 31.1885 32.2561 31.0893C32.4161 30.9901 32.5406 30.8563 32.6295 30.6838C32.7184 30.5155 32.7584 30.3214 32.7584 30.1101C32.7584 29.903 32.7139 29.7089 32.6295 29.5406C32.5406 29.3681 32.4206 29.2344 32.2561 29.1351C32.0961 29.0359 31.9094 28.9842 31.6916 28.9842C31.4694 28.9842 31.2827 29.0359 31.1227 29.1351C30.9626 29.2344 30.8426 29.3681 30.7493 29.5406C30.6604 29.7089 30.6159 29.903 30.6159 30.1144C30.6159 30.3257 30.6604 30.5155 30.7493 30.6838C30.8382 30.8563 30.9626 30.9901 31.1227 31.0893C31.2827 31.1885 31.4694 31.2403 31.6916 31.2403Z" fill="white"/>
<path d="M38.1642 31.8917C37.8086 31.8917 37.4886 31.8183 37.2174 31.6717C36.9419 31.525 36.7285 31.3136 36.5729 31.0419C36.4174 30.7701 36.3418 30.4466 36.3418 30.0713V26.9395H37.133V28.9238H37.1419C37.213 28.803 37.3108 28.6995 37.4308 28.6089C37.5508 28.5183 37.6841 28.4493 37.8308 28.4018C37.9775 28.3544 38.1331 28.3285 38.2975 28.3285C38.6309 28.3285 38.9287 28.4018 39.1821 28.5442C39.4354 28.6909 39.6355 28.8893 39.7821 29.1481C39.9244 29.407 39.9999 29.7089 39.9999 30.054C39.9999 30.3258 39.9555 30.5717 39.871 30.8003C39.7866 31.0246 39.6666 31.2187 39.5066 31.3827C39.3465 31.5466 39.1554 31.6717 38.9332 31.758C38.702 31.8485 38.4487 31.8917 38.1642 31.8917ZM38.1642 31.2403C38.3642 31.2403 38.5465 31.1928 38.702 31.0979C38.8576 31.003 38.9776 30.8693 39.0665 30.7011C39.1554 30.5328 39.1954 30.3344 39.1954 30.1144C39.1954 29.8987 39.151 29.7046 39.0665 29.5321C38.9776 29.3638 38.8576 29.2301 38.7065 29.1309C38.5509 29.0317 38.3731 28.9842 38.1731 28.9842C37.9731 28.9842 37.7908 29.0317 37.6353 29.1266C37.4797 29.2215 37.3597 29.3552 37.2708 29.5234C37.1819 29.6917 37.1419 29.8901 37.1419 30.1101C37.1419 30.3344 37.1863 30.5285 37.2708 30.6968C37.3597 30.865 37.4797 30.9987 37.6353 31.0936C37.7908 31.1885 37.9642 31.2403 38.1642 31.2403Z" fill="white"/>
<path d="M21.1533 8.17026H20.4955L16.6818 11.8715L16.5484 12.0009L16.3528 12.1907L15.5928 12.9283V13.5668L16.704 14.6452H17.3618L17.7174 14.3001L17.913 14.1146L18.0463 13.9809L18.2419 13.7954L21.38 10.7456L21.5756 10.5558L21.7089 10.4264L21.9045 10.2365L22.2601 9.89576V9.25733L21.1533 8.17026ZM21.989 9.51184L21.7978 9.69733V9.70164L21.58 9.91301L21.3844 10.1028L17.5885 13.7911L17.3929 13.9766L17.1751 14.188H16.904L16.0684 13.377V13.1138L16.6907 12.5099L16.8862 12.3201L19.8776 9.41693L20.0732 9.22713L20.6955 8.6232L20.8866 8.43771H21.1578L21.9934 9.2487V9.51184H21.989Z" fill="#73A4E0"/>
<path d="M28.9714 24.2045L28.7758 24.3943H29.1091L29.1403 24.3641L28.9714 24.2045ZM28.9714 24.2045L28.7758 24.3943H29.1091L29.1403 24.3641L28.9714 24.2045ZM28.9714 24.2045L28.7758 24.3943H29.1091L29.1403 24.3641L28.9714 24.2045ZM28.9714 24.2045L28.7758 24.3943H29.1091L29.1403 24.3641L28.9714 24.2045ZM28.9714 24.2045L28.7758 24.3943H29.1091L29.1403 24.3641L28.9714 24.2045ZM32.7673 20.788L32.4695 20.499L32.2739 20.6888L31.256 21.6767L30.9271 21.9959L30.7315 22.1857L28.8113 24.0449L28.4824 24.3641L28.6469 24.5237L28.7847 24.6575H30.1804L32.5806 22.328L32.5762 21.0339L32.7717 20.8441V20.788H32.7673ZM32.3006 21.3014V21.957L29.9803 24.2088H29.3047L29.1403 24.3684L28.9758 24.2088H29.3092L32.1094 21.4912L32.3006 21.3014V20.9778L32.465 21.1374L32.3006 21.3014ZM28.9714 24.2045L28.7758 24.3943H29.1091L29.1403 24.3641L28.9714 24.2045ZM28.9714 24.2045L28.7758 24.3943H29.1091L29.1403 24.3641L28.9714 24.2045ZM28.9714 24.2045L28.7758 24.3943H29.1091L29.1403 24.3641L28.9714 24.2045ZM28.9714 24.2045L28.7758 24.3943H29.1091L29.1403 24.3641L28.9714 24.2045Z" fill="#73A4E0"/>
<path d="M22.667 10.9742L22.338 11.2934L22.1691 11.1338L21.5735 10.5557L21.378 10.7456L18.2399 13.7954L18.8355 14.3734L18.9999 14.5287L18.8044 14.7228L18.671 14.8522L18.5466 14.7315L18.5066 14.6926L17.582 13.7954L21.378 10.1028L21.5735 9.91299L21.9025 10.2322L21.7069 10.4263L22.3025 11.0044L22.5025 10.8146L22.5425 10.8534L22.667 10.9742Z" fill="#73A4E0"/>
<path d="M19.7348 8.90795L19.5393 9.09775L19.0592 8.63187H18.0947L17.7346 8.98128L17.5391 9.17109L17.4057 9.3005L17.2102 9.4903L16.6279 10.0554L16.4323 10.2452L16.0723 10.5946V11.5307L16.8812 12.3158L19.8726 9.41266L20.0682 9.22285L19.7348 8.90795ZM16.8768 11.6817L16.5345 11.3495V10.7887L18.4814 8.89932H19.0592L19.4015 9.23148L16.8768 11.6817Z" fill="#73A4E0"/>
<path d="M12.7063 4.4906L12.5907 4.2102L11.9195 2.61411L8.31919 -3.05176e-05L7.16797 1.11723L9.86156 4.61138L11.5106 5.26276L11.7906 5.3706L11.9818 5.44394L12.7863 4.66315V4.65883L12.8396 4.61138L12.7063 4.4906ZM12.2307 4.55961L11.8662 4.91334L10.1594 4.2404L7.7858 1.16037L8.36364 0.599583L8.55477 0.409777L11.7284 2.71333L12.4263 4.37412L12.2307 4.55961Z" fill="#73A4E0"/>
<path d="M17.732 8.98118L17.5364 9.17099L12.8382 4.61566L12.7138 4.49487L12.5982 4.21448L12.5137 4.29644L12.4382 4.36977L12.2426 4.55958L11.6025 5.18076L11.7981 5.37056L11.9315 5.49998L16.6297 10.0596L16.9586 10.3788L18.0698 9.3004L17.732 8.98118ZM17.2075 9.49452L16.9542 9.7404L12.2559 5.18076L12.7049 4.74507L17.4031 9.30471L17.2075 9.49452Z" fill="#73A4E0"/>
<path d="M18.8749 14.4074L18.5449 14.7277L22.6654 18.7266L22.9954 18.4063L18.8749 14.4074Z" fill="#73A4E0"/>
<path d="M26.163 16.735L25.833 17.0552L31.0849 22.1522L31.4149 21.8319L26.163 16.735Z" fill="#73A4E0"/>
<path d="M28.643 24.528L24.3582 20.3825V17.997L19.8955 13.666L20.2244 13.3468L24.8249 17.8072V20.1927L28.9719 24.2088L28.643 24.528Z" fill="#73A4E0"/>
<path d="M23.7177 18.4111C23.4866 18.1825 23.1354 18.1351 22.8598 18.2774C22.7932 18.3119 22.7265 18.3594 22.6687 18.4111C22.6598 18.4198 22.6465 18.4327 22.642 18.4413C22.6198 18.4586 22.602 18.4801 22.5887 18.5017C22.5842 18.506 22.5842 18.506 22.5842 18.506C22.562 18.5362 22.5442 18.5621 22.5265 18.5923C22.482 18.6872 22.4553 18.7907 22.4509 18.8943C22.442 19.0841 22.5176 19.2782 22.6687 19.4249C22.9265 19.6751 23.3265 19.7009 23.6155 19.5068L23.6199 19.5025C23.6555 19.4853 23.691 19.4551 23.7177 19.4249C24.011 19.1488 24.011 18.6915 23.7177 18.4111ZM23.3888 19.11C23.3532 19.1445 23.3088 19.166 23.2643 19.179C23.171 19.2049 23.0687 19.1833 22.9976 19.11C22.9265 19.0409 22.8998 18.9374 22.9265 18.8468C22.9354 18.8037 22.9576 18.7649 22.9976 18.7303C23.1043 18.6225 23.2821 18.6225 23.3888 18.7303C23.4999 18.8339 23.4999 19.0064 23.3888 19.11Z" fill="#73A4E0"/>
<path d="M28.9232 21.09C28.6921 20.8657 28.3454 20.8182 28.0653 20.9563C27.9942 20.9908 27.932 21.0339 27.8742 21.09C27.8653 21.0986 27.8564 21.1072 27.8431 21.1202C27.8209 21.1417 27.8031 21.1676 27.7853 21.1892C27.7675 21.2151 27.7542 21.241 27.7364 21.2712C27.6875 21.3661 27.6653 21.4739 27.6609 21.5774C27.652 21.7672 27.7275 21.957 27.8787 22.1037C28.132 22.3539 28.5232 22.3841 28.8165 22.1986C28.8165 22.1986 28.821 22.1986 28.821 22.1943C28.861 22.1684 28.8965 22.1382 28.9321 22.1037C29.2166 21.8276 29.2166 21.3704 28.9232 21.09ZM28.5943 21.7888C28.5587 21.8233 28.5143 21.8492 28.4698 21.8578C28.3809 21.8794 28.2787 21.8578 28.2031 21.7888C28.132 21.7198 28.1098 21.6206 28.132 21.53C28.1409 21.4868 28.1676 21.448 28.2031 21.4092C28.3143 21.3014 28.4876 21.3014 28.5943 21.4092C28.701 21.5127 28.7054 21.6853 28.5943 21.7888Z" fill="#73A4E0"/>
<path d="M26.1366 16.0645C25.8477 15.7841 25.3721 15.7841 25.0832 16.0645C25.0476 16.0946 25.0209 16.1335 24.9987 16.1723C24.7987 16.4527 24.8298 16.8366 25.0832 17.0868C25.2476 17.2464 25.4654 17.3111 25.6788 17.2939C25.7855 17.2852 25.8832 17.255 25.9766 17.2033C25.9944 17.1947 26.0121 17.1817 26.0255 17.1731C26.061 17.1472 26.0966 17.1213 26.1233 17.0911C26.1277 17.0911 26.1277 17.0911 26.1322 17.0868C26.1988 17.0178 26.2522 16.9445 26.2833 16.8625C26.4122 16.595 26.3588 16.2801 26.1366 16.0645ZM25.6832 16.8323C25.5943 16.8539 25.4921 16.8323 25.4165 16.7633C25.3454 16.6943 25.3232 16.5907 25.3454 16.5045C25.3543 16.4613 25.3765 16.4182 25.4165 16.3837C25.5277 16.2758 25.701 16.2801 25.8077 16.3837C25.9144 16.4872 25.9144 16.6598 25.8077 16.7633C25.7721 16.8021 25.7277 16.8237 25.6832 16.8323Z" fill="#73A4E0"/>
<path d="M31.8906 19.2265C31.6594 19.0021 31.3083 18.9547 31.0283 19.0927C30.9571 19.1272 30.8949 19.1747 30.8371 19.2265C30.8282 19.2351 30.8149 19.248 30.806 19.2566C30.7838 19.2782 30.7616 19.3041 30.7482 19.33C30.726 19.3602 30.7082 19.3861 30.6993 19.4119C30.6505 19.5068 30.6238 19.6104 30.6193 19.7139C30.6149 19.9037 30.686 20.0978 30.8371 20.2445C31.0949 20.4947 31.495 20.5206 31.7839 20.3308C31.8239 20.3049 31.855 20.2747 31.8906 20.2445C32.1795 19.9641 32.1795 19.5068 31.8906 19.2265ZM31.5616 19.9253C31.5261 19.9598 31.4816 19.9857 31.4372 19.9943C31.3439 20.0159 31.2461 19.9943 31.1705 19.9253C31.0994 19.8563 31.0772 19.757 31.0994 19.6665C31.1083 19.6233 31.1305 19.5845 31.1705 19.5457C31.2816 19.4378 31.455 19.4378 31.5616 19.5457C31.6683 19.6535 31.6683 19.8217 31.5616 19.9253Z" fill="#73A4E0"/>
<path d="M28.7446 16.168C28.5135 15.9437 28.1623 15.8962 27.8823 16.0343C27.8156 16.0688 27.7489 16.1162 27.6912 16.168C27.6823 16.1766 27.6734 16.1895 27.6645 16.1982C27.6423 16.2197 27.6245 16.237 27.6112 16.2586C27.6067 16.2629 27.6067 16.2629 27.6067 16.2629C27.5889 16.2931 27.5667 16.319 27.5489 16.3492C27.5045 16.4441 27.4778 16.5476 27.4734 16.6511C27.4645 16.8409 27.54 17.035 27.6912 17.1817C27.949 17.4319 28.3446 17.4578 28.6335 17.2637C28.669 17.2421 28.709 17.2119 28.7446 17.1817C29.0335 16.9099 29.0335 16.4527 28.7446 16.168ZM28.4157 16.8711C28.3801 16.9056 28.3357 16.9272 28.2912 16.9401C28.2023 16.9617 28.1001 16.9401 28.0245 16.8711C27.9534 16.8021 27.9267 16.7029 27.9534 16.6123C27.9623 16.5692 27.9845 16.5303 28.0245 16.4915C28.1356 16.3837 28.309 16.3837 28.4157 16.4915C28.5224 16.595 28.5224 16.7676 28.4157 16.8711Z" fill="#73A4E0"/>
<path d="M28.2029 21.09L27.874 21.4092L26.2383 19.826V17.4103H26.705V19.6362L28.2029 21.09Z" fill="#73A4E0"/>
<path d="M27.2822 15.4519H24.1753L21.1172 12.4797L21.4461 12.1605L24.3708 14.9989H26.1532L22.2106 11.1726L22.5395 10.8534L27.2822 15.4519Z" fill="#73A4E0"/>
<path d="M26.8818 15.0631L26.5518 15.3834L27.6927 16.4907L28.0227 16.1704L26.8818 15.0631Z" fill="#73A4E0"/>
<path d="M31.1731 19.2264L30.8397 19.5456L29.7063 18.4456H27.3594V17.9927H29.8974L31.1731 19.2264Z" fill="#73A4E0"/>
<path d="M28.8162 14.3654L28.1279 15.0334L28.4579 15.3537L29.1463 14.6857L28.8162 14.3654Z" fill="#73A4E0"/>
<path d="M22.8531 20.1489L21.9668 21.0091L22.2968 21.3294L23.1831 20.4692L22.8531 20.1489Z" fill="#73A4E0"/>
<path d="M22.2988 20.1489L21.9688 20.4691L22.8551 21.3293L23.1851 21.009L22.2988 20.1489Z" fill="#73A4E0"/>
<path d="M28.0651 14.175L27.9318 14.3044L24.3892 10.8663H23.1091L22.9135 11.0561L22.8335 11.1338L22.6379 11.3236L22.5046 11.453L22.3046 11.6428L21.2822 12.6393L21.0822 12.8291L20.3888 13.5063L19.1665 14.6926L18.9709 14.8781L18.8376 15.0118L18.642 15.2017L18.562 15.2793V16.5217L21.8245 19.6923L21.4956 20.0115L18.0908 16.7115V15.0981L18.3131 14.8824V14.8781L18.5086 14.6926L18.642 14.5632V14.5589L18.8376 14.3734L21.9756 11.3236L22.7179 10.6032H24.3848L28.0651 14.175Z" fill="#73A4E0"/>
<path d="M33.0195 18.9805V20.5982L32.7661 20.8484L32.5661 21.0382L32.0994 21.4912L29.3036 24.2045L29.1346 24.3684L29.108 24.3986L28.8368 24.6575L28.6413 24.8516L28.3924 25.0888H26.73L23.3252 21.7845L23.4585 21.6551L23.6541 21.4653L26.9211 24.6359H28.2012L28.8057 24.0492L30.7215 22.1857L30.917 21.9959L31.2504 21.6766L32.2683 20.6888L32.5528 20.4127V20.4084L32.7483 20.2186V18.9805L29.2013 15.5382L29.3347 15.4088L33.0195 18.9805Z" fill="#73A4E0"/>
<path d="M21.1536 8.17026H20.4913L19.7357 8.90791L16.682 11.8715L16.5487 12.0009L16.3531 12.1907L15.593 12.9283L15.3975 13.1181V13.7566L16.5087 14.835H17.1665L17.3621 14.6452L17.7177 14.3001L17.9133 14.1146L18.0466 13.9809L18.2422 13.7954L21.3803 10.7456L21.5758 10.5558L21.7092 10.4264L21.9048 10.2365L22.2604 9.89576V9.25733L21.1536 8.17026ZM21.3803 10.1028L17.5843 13.7911L17.3888 13.9766L16.9709 14.3821H16.6998L15.8597 13.5754V13.3123L16.0553 13.1225L16.6776 12.5185L16.8732 12.3287L19.8646 9.42556L20.0601 9.23576L20.678 8.63183H20.9536L21.7892 9.44713V9.71027L21.5714 9.92164L21.3803 10.1028Z" fill="white"/>
<path d="M32.5681 21.0382V20.9821L32.2703 20.6931L31.2524 21.681L30.9235 22.0002L30.7279 22.19L28.8077 24.0492L28.2832 24.5582L28.581 24.8473H29.9767L32.5725 22.328L32.5681 21.0382ZM29.1099 24.3986L29.1411 24.3684L29.3055 24.2088L32.1058 21.4912V21.1676L32.2703 21.3272L32.1058 21.4868V22.1382L29.9856 24.2002L29.79 24.39H29.1099L28.9455 24.5496L28.781 24.39H29.1099V24.3986Z" fill="white"/>
<path d="M22.4732 11.164L22.1443 11.4832L21.9753 11.3236L21.3797 10.7456L18.2416 13.7954L18.0461 13.9809L18.6417 14.5589V14.5632L18.6817 14.5978V14.6021H18.6861L18.8061 14.7228L18.6728 14.8523L18.4772 15.0421L18.3528 14.917L18.3128 14.8825V14.8781L17.7172 14.3001L17.3838 13.9809L17.5838 13.7954L21.3797 10.1028L22.4732 11.164Z" fill="white"/>
<path d="M19.0605 8.63187H18.0959L17.7359 8.98128L17.5403 9.17109L17.407 9.3005L17.2114 9.4903L16.6291 10.0554L16.4335 10.2452L16.0735 10.5946L15.8779 10.7844V11.7205L16.6869 12.5056L16.8825 12.3158L19.8739 9.41266L19.0605 8.63187ZM16.6825 11.8715L16.3402 11.5393V10.9786L18.2871 9.08912H18.8649L19.2071 9.42128L16.6825 11.8715Z" fill="white"/>
<path d="M12.7095 4.49063L12.5939 4.21023L11.9227 2.61414L8.32238 0L6.97559 1.30707L9.66918 4.7969L11.5983 5.56044L11.7894 5.63377L12.7895 4.66318V4.65886L12.7095 4.49063ZM11.6738 5.10318L9.96254 4.42592L7.58898 1.35021L7.78455 1.1604L8.36239 0.599614L11.5316 2.90316L12.2294 4.56396L11.6738 5.10318Z" fill="white"/>
<path d="M17.5353 9.17534L12.8371 4.61569L12.5081 4.29648L12.4326 4.36981L12.237 4.55962L11.4014 5.3706L11.5969 5.56041L16.4285 10.2495L16.7574 10.5687L17.8687 9.49024L17.5353 9.17534ZM16.7574 9.93025L12.0548 5.3706L12.5037 4.93491L17.2019 9.49456L16.7574 9.93025Z" fill="white"/>
<path d="M18.6826 14.6L18.3525 14.9203L22.473 18.9192L22.803 18.5989L18.6826 14.6Z" fill="white"/>
<path d="M25.9667 16.9306L25.6367 17.2509L30.8886 22.3479L31.2186 22.0276L25.9667 16.9306Z" fill="white"/>
<path d="M28.4467 24.7179L24.1619 20.5724V18.1869L19.6992 13.8558L20.0281 13.5366L24.6286 18.0014V20.3826L28.7757 24.3987L28.4467 24.7179Z" fill="white"/>
<path d="M23.5271 18.5966C23.376 18.45 23.176 18.3809 22.976 18.3853C22.8693 18.3896 22.7582 18.4155 22.6648 18.4586C22.6382 18.4715 22.6159 18.4888 22.5937 18.5017C22.5893 18.506 22.5893 18.506 22.5893 18.506C22.5582 18.5233 22.5315 18.5449 22.5093 18.5708C22.4959 18.5794 22.487 18.588 22.4737 18.5966C22.4159 18.6527 22.3715 18.7174 22.3359 18.7821C22.1937 19.0539 22.2381 19.3904 22.4737 19.6147C22.7626 19.8951 23.2382 19.8951 23.5271 19.6147C23.5583 19.5802 23.5938 19.5457 23.616 19.5068L23.6205 19.5025C23.8116 19.2264 23.7805 18.8468 23.5271 18.5966ZM22.8026 19.2998C22.6915 19.1962 22.6915 19.0237 22.8026 18.9202C22.8382 18.8857 22.8826 18.8641 22.9271 18.8511C23.0204 18.8339 23.1182 18.8555 23.1893 18.9202C23.2605 18.9892 23.2871 19.0927 23.2605 19.179C23.2516 19.2221 23.2249 19.2653 23.1893 19.2998C23.0871 19.4076 22.9093 19.4076 22.8026 19.2998Z" fill="white"/>
<path d="M28.7268 21.2797C28.5757 21.1331 28.3757 21.0641 28.1801 21.0684C28.0734 21.0727 27.9623 21.0943 27.8689 21.1417H27.8645C27.8334 21.159 27.8067 21.1719 27.78 21.1892C27.7534 21.2064 27.7311 21.2237 27.7089 21.2452C27.6956 21.2539 27.6867 21.2625 27.6778 21.2754C27.62 21.3315 27.5756 21.3962 27.54 21.4609C27.3978 21.7284 27.4422 22.0648 27.6778 22.2935C27.9667 22.5739 28.4423 22.5739 28.7312 22.2935C28.7624 22.2633 28.789 22.2331 28.8113 22.1986C28.8113 22.1986 28.8157 22.1986 28.8157 22.1943C29.0157 21.9182 28.9846 21.5299 28.7268 21.2797ZM28.0067 21.9786C27.9001 21.875 27.9001 21.7025 28.0067 21.599C28.0423 21.5645 28.0867 21.5386 28.1312 21.5299C28.2245 21.5084 28.3268 21.5299 28.3979 21.599C28.469 21.668 28.4957 21.7672 28.469 21.8578C28.4601 21.9009 28.4379 21.9398 28.3979 21.9786C28.2912 22.0864 28.1134 22.0864 28.0067 21.9786Z" fill="white"/>
<path d="M25.942 16.2542C25.6842 16.004 25.2886 15.9782 24.9997 16.1723C24.9641 16.1939 24.9241 16.224 24.8886 16.2542C24.5996 16.5346 24.5996 16.9962 24.8886 17.2766C25.1286 17.5096 25.4975 17.5527 25.782 17.3888C25.8398 17.3586 25.8931 17.3197 25.942 17.2766C25.9598 17.255 25.982 17.2378 25.9953 17.2162C26.0087 17.2033 26.022 17.1903 26.0309 17.1731C26.0531 17.1386 26.0753 17.0997 26.0976 17.0566C26.142 16.9617 26.1598 16.8539 26.1554 16.746C26.1509 16.5691 26.0798 16.388 25.942 16.2542ZM25.2175 16.5735C25.253 16.539 25.2975 16.5174 25.3419 16.5044C25.4353 16.4786 25.5375 16.5001 25.6086 16.5735C25.6797 16.6425 25.7064 16.7417 25.6798 16.8323C25.6709 16.8754 25.6442 16.9186 25.6086 16.9531C25.502 17.0566 25.3242 17.0566 25.2175 16.9531C25.1108 16.8495 25.1108 16.677 25.2175 16.5735Z" fill="white"/>
<path d="M31.6959 19.4162C31.5448 19.2696 31.3447 19.2006 31.1492 19.2049C31.0425 19.2092 30.9358 19.2351 30.838 19.2825C30.8114 19.2955 30.7802 19.3127 30.7536 19.33C30.7269 19.3429 30.7002 19.3602 30.678 19.386C30.6691 19.3947 30.6558 19.4033 30.6424 19.4119C30.5847 19.468 30.5358 19.5284 30.5047 19.5974V19.6017C30.3669 19.8735 30.4113 20.21 30.6424 20.4343C30.9314 20.7147 31.407 20.7147 31.6959 20.4343C31.727 20.3998 31.7581 20.3696 31.7848 20.3308C31.9804 20.0504 31.9537 19.6664 31.6959 19.4162ZM30.9714 20.1151C30.8647 20.0115 30.8647 19.839 30.9714 19.7355C31.0069 19.701 31.0514 19.6794 31.0958 19.6664C31.1892 19.6449 31.2914 19.6664 31.3625 19.7355C31.4336 19.8045 31.4603 19.908 31.4336 19.9986C31.4247 20.0461 31.4025 20.0849 31.3625 20.1194C31.2603 20.2229 31.0825 20.2229 30.9714 20.1151Z" fill="white"/>
<path d="M28.5491 16.3621C28.3979 16.2154 28.1979 16.1464 27.9979 16.1507C27.8912 16.155 27.7801 16.1809 27.6868 16.2241C27.6601 16.237 27.6379 16.2543 27.6156 16.2672C27.6112 16.2715 27.6112 16.2715 27.6112 16.2715C27.5801 16.2931 27.5534 16.3103 27.5312 16.3319C27.5179 16.3405 27.509 16.3492 27.5001 16.3621C27.4423 16.4182 27.3978 16.4829 27.3623 16.5476C27.22 16.8194 27.2645 17.1558 27.5001 17.3802C27.789 17.6605 28.2646 17.6605 28.5535 17.3802C28.5891 17.35 28.6157 17.3111 28.638 17.2723C28.8335 16.9919 28.8024 16.608 28.5491 16.3621ZM27.8246 17.0609C27.7179 16.9574 27.7179 16.7849 27.8246 16.6813C27.8601 16.6468 27.9046 16.6252 27.949 16.6123C28.0424 16.5907 28.1446 16.6123 28.2157 16.6813C28.2868 16.7503 28.3135 16.8539 28.2868 16.9445C28.2779 16.9876 28.2513 17.0264 28.2157 17.0653C28.1135 17.1688 27.9357 17.1688 27.8246 17.0609Z" fill="white"/>
<path d="M28.0076 21.2798L27.6787 21.599L26.043 20.0159V17.6002H26.5097V19.8261L28.0076 21.2798Z" fill="white"/>
<path d="M27.082 15.6417H23.9795L20.917 12.6696L21.2504 12.3503L24.1751 15.1888H25.9575L22.0149 11.3625L22.3438 11.0433L27.082 15.6417Z" fill="white"/>
<path d="M26.6855 15.2527L26.3555 15.5729L27.4964 16.6802L27.8264 16.3599L26.6855 15.2527Z" fill="white"/>
<path d="M30.9778 19.4163L30.6444 19.7355L29.511 18.6355H27.1641V18.1825H29.7021L30.9778 19.4163Z" fill="white"/>
<path d="M29.1466 14.684L28.4577 15.3527L28.2621 15.5425L27.9287 15.2233L28.8177 14.3605L29.1466 14.684Z" fill="white"/>
<path d="M22.6568 20.3384L21.7705 21.1986L22.1005 21.5189L22.9868 20.6587L22.6568 20.3384Z" fill="white"/>
<path d="M22.1034 20.3384L21.7734 20.6587L22.6598 21.5189L22.9898 21.1986L22.1034 20.3384Z" fill="white"/>
<path d="M28.0658 14.175L27.9325 14.3044L27.7369 14.4942L24.1943 11.0561H22.9142L22.8342 11.1338L22.6386 11.3236L22.5053 11.453L22.3053 11.6428L21.2829 12.6393L21.0829 12.8291L20.3895 13.5063L19.1672 14.6926L18.9716 14.8781L18.8383 15.0118L18.6427 15.2017L18.5627 15.2793L18.3671 15.4734V16.7115L21.6296 19.8821L21.3007 20.2013L17.9004 16.9013V15.2836L18.0915 15.0981L18.3138 14.8824V14.8781L18.5093 14.6926L18.6427 14.5632V14.5589L18.8383 14.3734L21.9763 11.3236L22.7186 10.6032H24.3855L28.0658 14.175Z" fill="white"/>
<path d="M33.0222 18.9805V20.5982L32.7689 20.8484L32.5688 21.0382L32.1021 21.4912L29.3063 24.2045L29.1374 24.3684L29.1107 24.3986L28.8396 24.6575L28.644 24.8516L28.3951 25.0888L28.1995 25.2786H26.5327L23.1279 21.9743L23.3279 21.7845L23.4613 21.6551L26.7283 24.8257H28.0084L28.8085 24.0492L30.7287 22.19L30.9242 22.0002L31.2532 21.6766L32.271 20.6888L32.5555 20.4127V20.4084V19.1703L29.0085 15.728L29.2041 15.5382L29.3374 15.4088L33.0222 18.9805Z" fill="white"/>
<path d="M17.5358 7.80362L17.7314 7.61381L17.7847 7.66557H19.4693L19.536 7.73028L20.0738 7.204H20.0783H21.5673L23.2608 8.85186V9.63265H24.7987L28.5368 13.2605L30.2792 14.9515L30.6748 15.3354C30.906 14.4727 31.026 13.5711 31.026 12.6393C31.026 6.72517 26.0877 1.93259 19.9938 1.93259C17.5891 1.93259 15.3711 2.67887 13.5576 3.94711L17.5358 7.80362Z" fill="#73A4E0"/>
<path d="M22.6599 22.8888L22.3799 22.617L20.6375 20.9261L16.8994 17.2982V15.8056H16.0904L14.3969 14.1621V12.717L14.9392 12.1907L14.8725 12.126V10.3875L15.0148 10.2495L11.041 6.39731C9.73869 8.15301 8.96973 10.3099 8.96973 12.6393C8.96973 18.5535 13.908 23.3461 20.0019 23.3461C20.962 23.3461 21.891 23.2253 22.78 23.0053L22.6599 22.8888Z" fill="#73A4E0"/>
</svg>
