<svg width="176" height="142" viewBox="0 0 176 142" fill="none" xmlns="http://www.w3.org/2000/svg">
<path d="M0.860533 141.654V138.542H9.9743C10.561 138.542 11.0695 138.408 11.4998 138.12C11.9301 137.851 12.2821 137.486 12.5363 137.025C12.7906 136.583 12.9079 136.103 12.9079 135.623C12.9079 135.085 12.7906 134.605 12.5363 134.163C12.3016 133.721 11.9496 133.376 11.5193 133.126C11.0891 132.876 10.5806 132.742 10.0134 132.742H6.23883C5.04583 132.742 3.98973 132.492 3.05097 132.012C2.11221 131.532 1.36902 130.84 0.821415 129.976C0.273807 129.112 0 128.075 0 126.884C0 125.693 0.254247 124.656 0.782298 123.753C1.31035 122.85 2.01442 122.139 2.93362 121.621C3.83326 121.102 4.86982 120.853 6.02371 120.853H15.1375V123.964H6.35617C5.82812 123.964 5.35875 124.099 4.92848 124.348C4.49822 124.598 4.1853 124.944 3.95061 125.366C3.71592 125.789 3.59858 126.231 3.59858 126.711C3.59858 127.21 3.71592 127.652 3.95061 128.055C4.1853 128.459 4.49822 128.785 4.92848 129.035C5.33919 129.285 5.80857 129.4 6.33662 129.4H10.209C11.4998 129.4 12.6146 129.65 13.5533 130.149C14.4921 130.648 15.2157 131.321 15.7242 132.204C16.2327 133.068 16.4869 134.067 16.4869 135.2C16.4869 136.526 16.2131 137.678 15.6851 138.639C15.157 139.599 14.4334 140.348 13.5142 140.867C12.595 141.385 11.5585 141.654 10.4046 141.654H0.860533Z" fill="white"/>
<path d="M35.1209 141.999C33.6541 141.999 32.3829 141.634 31.3072 140.923C30.2315 140.213 29.4101 139.252 28.8429 138.062C28.2758 136.871 27.9824 135.545 27.9824 134.086C27.9824 132.587 28.3149 131.224 28.9603 130.033C29.6252 128.842 30.5444 127.882 31.7766 127.19C33.0087 126.499 34.4559 126.134 36.1574 126.134C37.8394 126.134 39.2671 126.48 40.4405 127.19C41.614 127.901 42.5332 128.842 43.159 130.033C43.7848 131.243 44.1173 132.568 44.1173 134.028V141.634H40.6361V138.811H40.5774C40.2841 139.368 39.8733 139.886 39.404 140.366C38.915 140.847 38.3283 141.25 37.6242 141.538C36.9006 141.865 36.0597 141.999 35.1209 141.999ZM36.0596 139.099C36.9593 139.099 37.7611 138.868 38.4261 138.426C39.1106 137.985 39.6387 137.37 40.0103 136.621C40.4014 135.853 40.5774 135.008 40.5579 134.047C40.5579 133.106 40.3819 132.242 40.0103 131.512C39.6387 130.763 39.1302 130.167 38.4652 129.726C37.8003 129.284 36.9984 129.053 36.0792 129.053C35.1209 129.053 34.2799 129.284 33.5954 129.726C32.9109 130.167 32.3829 130.763 32.0308 131.531C31.6592 132.28 31.4832 133.144 31.4832 134.086C31.4832 135.027 31.6592 135.872 32.0308 136.621C32.4024 137.389 32.9109 137.985 33.5954 138.426C34.2604 138.868 35.0818 139.099 36.0596 139.099Z" fill="white"/>
<path d="M57.3672 141.654V119.95H60.8484V132.55H64.1732L68.0456 126.48H71.8984L67.5762 133.088C68.9647 133.568 70.0404 134.355 70.8227 135.488C71.5855 136.602 71.9766 137.889 71.9766 139.33V141.654H68.4954V139.33C68.4954 138.619 68.3194 137.966 67.9869 137.39C67.6544 136.814 67.185 136.353 66.5983 136.007C66.0116 135.661 65.3466 135.508 64.6034 135.508H60.8875V141.654H57.3672Z" fill="white"/>
<path d="M84.5449 141.654V130.802C84.5449 129.458 84.9361 128.401 85.7184 127.633C86.5007 126.865 87.5763 126.48 88.9453 126.48H92.6613V129.4H89.5712C89.0822 129.4 88.7107 129.534 88.4368 129.823C88.163 130.091 88.0261 130.476 88.0261 130.956V141.654H84.5449Z" fill="white"/>
<path d="M111.493 141.999C109.89 141.999 108.482 141.653 107.249 140.943C106.017 140.232 105.039 139.291 104.335 138.081C103.612 136.89 103.26 135.546 103.26 134.047C103.26 132.568 103.612 131.224 104.335 130.014C105.059 128.823 106.017 127.863 107.249 127.171C108.482 126.46 109.89 126.115 111.493 126.115C113.058 126.115 114.466 126.46 115.698 127.171C116.93 127.882 117.908 128.823 118.612 130.014C119.316 131.205 119.688 132.549 119.688 134.047C119.688 135.526 119.336 136.871 118.612 138.081C117.889 139.272 116.93 140.232 115.698 140.943C114.486 141.653 113.078 141.999 111.493 141.999ZM111.493 139.099C112.432 139.099 113.273 138.868 113.977 138.427C114.681 137.985 115.229 137.389 115.62 136.621C116.011 135.872 116.187 135.008 116.187 134.067C116.187 133.145 115.992 132.28 115.62 131.531C115.229 130.763 114.701 130.167 113.977 129.726C113.273 129.284 112.452 129.053 111.493 129.053C110.516 129.053 109.694 129.284 108.99 129.726C108.286 130.167 107.758 130.763 107.347 131.531C106.956 132.28 106.761 133.145 106.761 134.086C106.761 135.027 106.956 135.872 107.347 136.621C107.738 137.389 108.286 137.985 108.99 138.427C109.694 138.868 110.535 139.099 111.493 139.099Z" fill="white"/>
<path d="M139.447 141.999C137.843 141.999 136.435 141.653 135.203 140.943C133.97 140.232 132.993 139.291 132.289 138.081C131.565 136.89 131.213 135.546 131.213 134.047C131.213 132.568 131.565 131.224 132.289 130.014C133.012 128.823 133.97 127.863 135.203 127.171C136.435 126.46 137.843 126.115 139.447 126.115C141.011 126.115 142.419 126.46 143.651 127.171C144.884 127.882 145.861 128.823 146.565 130.014C147.27 131.205 147.641 132.549 147.641 134.047C147.641 135.526 147.289 136.871 146.565 138.081C145.842 139.272 144.884 140.232 143.651 140.943C142.419 141.653 141.011 141.999 139.447 141.999ZM139.447 139.099C140.385 139.099 141.226 138.868 141.93 138.427C142.634 137.985 143.182 137.389 143.573 136.621C143.964 135.872 144.14 135.008 144.14 134.067C144.14 133.145 143.945 132.28 143.573 131.531C143.182 130.763 142.654 130.167 141.93 129.726C141.226 129.284 140.405 129.053 139.447 129.053C138.469 129.053 137.647 129.284 136.943 129.726C136.239 130.167 135.711 130.763 135.3 131.531C134.909 132.28 134.714 133.145 134.714 134.086C134.714 135.027 134.909 135.872 135.3 136.621C135.692 137.389 136.239 137.985 136.943 138.427C137.647 138.868 138.469 139.099 139.447 139.099Z" fill="white"/>
<path d="M167.923 142C166.358 142 164.95 141.673 163.757 141.02C162.545 140.367 161.606 139.426 160.921 138.216C160.237 137.006 159.904 135.565 159.904 133.894V119.95H163.386V128.785H163.425C163.738 128.247 164.168 127.786 164.696 127.383C165.224 126.98 165.811 126.672 166.456 126.461C167.101 126.25 167.786 126.134 168.51 126.134C169.976 126.134 171.287 126.461 172.402 127.095C173.516 127.748 174.396 128.631 175.042 129.784C175.668 130.936 176 132.281 176 133.817C176 135.027 175.805 136.122 175.433 137.14C175.061 138.139 174.533 139.003 173.829 139.733C173.125 140.463 172.284 141.02 171.306 141.404C170.289 141.808 169.175 142 167.923 142ZM167.923 139.099C168.803 139.099 169.605 138.888 170.289 138.466C170.974 138.043 171.502 137.448 171.893 136.698C172.284 135.949 172.46 135.066 172.46 134.086C172.46 133.126 172.265 132.262 171.893 131.493C171.502 130.744 170.974 130.149 170.309 129.707C169.624 129.265 168.842 129.054 167.962 129.054C167.082 129.054 166.28 129.265 165.596 129.688C164.911 130.11 164.383 130.706 163.992 131.455C163.601 132.204 163.425 133.088 163.425 134.067C163.425 135.066 163.62 135.93 163.992 136.679C164.383 137.428 164.911 138.024 165.596 138.446C166.28 138.869 167.043 139.099 167.923 139.099Z" fill="white"/>
<path d="M93.0738 36.3794H90.1793L73.399 52.8593L72.8123 53.4355L71.9517 54.2806L68.6074 57.5651V60.4078L73.4968 65.2096H76.3913L77.9559 63.673L78.8164 62.8471L79.4031 62.2517L80.2637 61.4258L94.0712 47.8462L94.9317 47.001L95.5185 46.4248L96.379 45.5797L97.9436 44.0623V41.2196L93.0738 36.3794ZM96.7506 42.3529L95.9096 43.1788V43.198L94.9513 44.1392L94.0908 44.9843L77.3887 61.4066L76.5282 62.2325L75.5699 63.1736H74.3769L70.7001 59.5627V58.391L73.4381 55.702L74.2986 54.8569L87.4608 41.9303L88.3213 41.0852L91.0594 38.3962L91.9003 37.5703H93.0933L96.7702 41.1812V42.3529H96.7506Z" fill="#73A4E0"/>
<path d="M127.474 107.772L126.613 108.617H128.08L128.217 108.482L127.474 107.772ZM127.474 107.772L126.613 108.617H128.08L128.217 108.482L127.474 107.772ZM127.474 107.772L126.613 108.617H128.08L128.217 108.482L127.474 107.772ZM127.474 107.772L126.613 108.617H128.08L128.217 108.482L127.474 107.772ZM127.474 107.772L126.613 108.617H128.08L128.217 108.482L127.474 107.772ZM144.176 92.5593L142.865 91.2725L142.005 92.1176L137.526 96.5161L136.079 97.9374L135.218 98.7825L126.77 107.061L125.322 108.482L126.046 109.193L126.652 109.788H132.793L143.354 99.4164L143.335 93.6542L144.195 92.809V92.5593H144.176ZM142.122 94.845V97.7646L131.913 107.791H128.94L128.217 108.501L127.493 107.791H128.96L141.281 95.6901L142.122 94.845V93.4045L142.846 94.1152L142.122 94.845ZM127.474 107.772L126.613 108.617H128.08L128.217 108.482L127.474 107.772ZM127.474 107.772L126.613 108.617H128.08L128.217 108.482L127.474 107.772ZM127.474 107.772L126.613 108.617H128.08L128.217 108.482L127.474 107.772ZM127.474 107.772L126.613 108.617H128.08L128.217 108.482L127.474 107.772Z" fill="#73A4E0"/>
<path d="M99.739 48.8642L98.2917 50.2855L97.5485 49.5748L94.9278 47.0011L94.0673 47.8462L80.2597 61.4258L82.8804 63.9995L83.6041 64.691L82.7435 65.5553L82.1568 66.1316L81.6092 65.5938L81.4332 65.4209L77.3652 61.4258L94.0673 44.9843L94.9278 44.1392L96.3751 45.5605L95.5146 46.4248L98.1353 48.9986L99.0153 48.1535L99.1914 48.3264L99.739 48.8642Z" fill="#73A4E0"/>
<path d="M86.8341 39.6633L85.9736 40.5085L83.8614 38.4341H79.6174L78.0332 39.9899L77.1727 40.835L76.586 41.4112L75.7255 42.2563L73.1634 44.7725L72.3029 45.6176L70.7188 47.1734V51.3414L74.2782 54.8371L87.4404 41.9106L88.3009 41.0655L86.8341 39.6633ZM74.2586 52.0137L72.7527 50.5347V48.0378L81.3189 39.6249H83.8614L85.3673 41.1039L74.2586 52.0137Z" fill="#73A4E0"/>
<path d="M55.9116 19.9948L55.4031 18.7464L52.4499 11.6397L36.6083 0L31.543 4.97471L43.3948 20.5326L50.6506 23.433L51.8827 23.9131L52.7237 24.2397L56.2636 20.7631V20.7439L56.4983 20.5326L55.9116 19.9948ZM53.8189 20.3022L52.2152 21.8772L44.7051 18.8808L34.2614 5.16678L36.8039 2.66982L37.6449 1.8247L51.6089 12.0814L54.6794 19.4762L53.8189 20.3022Z" fill="#73A4E0"/>
<path d="M78.0205 39.9892L77.16 40.8344L56.4878 20.5514L55.9401 20.0136L55.4317 18.7651L55.0601 19.1301L54.7276 19.4566L53.8671 20.3017L51.0508 23.0676L51.9113 23.9127L52.498 24.4889L73.1703 44.7911L74.6175 46.2124L79.5069 41.4106L78.0205 39.9892ZM75.7127 42.2749L74.598 43.3697L53.9257 23.0676L55.901 21.1276L76.5733 41.4298L75.7127 42.2749Z" fill="#73A4E0"/>
<path d="M83.0517 64.1511L81.5996 65.5771L99.7295 83.3825L101.182 81.9565L83.0517 64.1511Z" fill="#73A4E0"/>
<path d="M115.118 74.5144L113.666 75.9404L136.774 98.6351L138.226 97.2091L115.118 74.5144Z" fill="#73A4E0"/>
<path d="M126.03 109.212L107.177 90.7539V80.1323L87.541 60.8481L88.9883 59.4268L109.23 79.2871V89.9088L127.477 107.791L126.03 109.212Z" fill="#73A4E0"/>
<path d="M104.36 81.977C103.343 80.959 101.798 80.7477 100.586 81.3815C100.292 81.5352 99.9989 81.7465 99.7446 81.977C99.7055 82.0154 99.6468 82.073 99.6273 82.1114C99.5295 82.1883 99.4513 82.2843 99.3926 82.3803C99.373 82.3995 99.373 82.3995 99.373 82.3995C99.2752 82.534 99.197 82.6492 99.1188 82.7837C98.9232 83.2062 98.8059 83.6672 98.7863 84.1282C98.7472 84.9733 99.0797 85.8376 99.7446 86.4907C100.879 87.6047 102.639 87.72 103.91 86.8556L103.93 86.8364C104.086 86.7596 104.243 86.6251 104.36 86.4907C105.651 85.2614 105.651 83.2254 104.36 81.977ZM102.913 85.0886C102.756 85.2422 102.561 85.3383 102.365 85.3959C101.955 85.5111 101.505 85.4151 101.192 85.0886C100.879 84.7812 100.762 84.3203 100.879 83.9169C100.918 83.7248 101.016 83.552 101.192 83.3983C101.661 82.9181 102.444 82.9181 102.913 83.3983C103.402 83.8593 103.402 84.6276 102.913 85.0886Z" fill="#73A4E0"/>
<path d="M127.261 93.9053C126.244 92.9065 124.718 92.6953 123.486 93.3099C123.173 93.4636 122.899 93.6556 122.645 93.9053C122.606 93.9437 122.567 93.9822 122.508 94.0398C122.41 94.1358 122.332 94.2511 122.254 94.3471C122.176 94.4623 122.117 94.5776 122.039 94.712C121.824 95.1346 121.726 95.6148 121.706 96.0758C121.667 96.9209 122 97.766 122.665 98.419C123.779 99.5331 125.5 99.6675 126.791 98.8416C126.791 98.8416 126.811 98.8416 126.811 98.8224C126.987 98.7072 127.143 98.5727 127.3 98.419C128.551 97.1898 128.551 95.1538 127.261 93.9053ZM125.813 97.0169C125.657 97.1706 125.461 97.2858 125.266 97.3242C124.875 97.4203 124.425 97.3242 124.092 97.0169C123.779 96.7096 123.682 96.2678 123.779 95.8645C123.818 95.6724 123.936 95.4995 124.092 95.3267C124.581 94.8465 125.344 94.8465 125.813 95.3267C126.283 95.7876 126.302 96.556 125.813 97.0169Z" fill="#73A4E0"/>
<path d="M115.003 71.5277C113.732 70.2792 111.639 70.2792 110.368 71.5277C110.211 71.6621 110.094 71.835 109.996 72.0078C109.116 73.2563 109.253 74.9658 110.368 76.0798C111.092 76.7905 112.05 77.0786 112.989 77.0017C113.458 76.9633 113.888 76.8289 114.299 76.5984C114.377 76.56 114.455 76.5024 114.514 76.464C114.671 76.3487 114.827 76.2335 114.944 76.099C114.964 76.099 114.964 76.099 114.983 76.0798C115.277 75.7725 115.511 75.446 115.648 75.081C116.216 73.8902 115.981 72.488 115.003 71.5277ZM113.008 74.9466C112.617 75.0426 112.167 74.9466 111.835 74.6393C111.522 74.3319 111.424 73.871 111.522 73.4868C111.561 73.2947 111.659 73.1027 111.835 72.949C112.324 72.4688 113.086 72.488 113.556 72.949C114.025 73.41 114.025 74.1783 113.556 74.6393C113.399 74.8121 113.204 74.9082 113.008 74.9466Z" fill="#73A4E0"/>
<path d="M140.319 85.607C139.302 84.6082 137.757 84.3969 136.525 85.0116C136.212 85.1652 135.938 85.3765 135.684 85.607C135.645 85.6454 135.586 85.703 135.547 85.7414C135.449 85.8375 135.351 85.9527 135.293 86.068C135.195 86.2024 135.117 86.3177 135.078 86.4329C134.862 86.8555 134.745 87.3164 134.725 87.7774C134.706 88.6225 135.019 89.4869 135.684 90.1399C136.818 91.2539 138.578 91.3692 139.85 90.5241C140.026 90.4088 140.162 90.2744 140.319 90.1399C141.59 88.8914 141.59 86.8555 140.319 85.607ZM138.872 88.7186C138.715 88.8722 138.52 88.9875 138.324 89.0259C137.913 89.1219 137.483 89.0259 137.151 88.7186C136.838 88.4112 136.74 87.9695 136.838 87.5661C136.877 87.3741 136.975 87.2012 137.151 87.0283C137.64 86.5481 138.402 86.5481 138.872 87.0283C139.341 87.5085 139.341 88.2576 138.872 88.7186Z" fill="#73A4E0"/>
<path d="M126.477 71.9893C125.46 70.9905 123.915 70.7793 122.683 71.3939C122.39 71.5475 122.097 71.7588 121.842 71.9893C121.803 72.0277 121.764 72.0853 121.725 72.1238C121.627 72.2198 121.549 72.2966 121.49 72.3927C121.471 72.4119 121.471 72.4119 121.471 72.4119C121.392 72.5463 121.295 72.6616 121.216 72.796C121.021 73.2186 120.904 73.6796 120.884 74.1405C120.845 74.9857 121.177 75.85 121.842 76.503C122.977 77.6171 124.717 77.7323 125.988 76.868C126.145 76.7719 126.321 76.6375 126.477 76.503C127.749 75.293 127.749 73.257 126.477 71.9893ZM125.03 75.1201C124.874 75.2738 124.678 75.3698 124.483 75.4274C124.091 75.5235 123.642 75.4274 123.309 75.1201C122.996 74.8128 122.879 74.371 122.996 73.9677C123.035 73.7756 123.133 73.6027 123.309 73.4299C123.798 72.9497 124.561 72.9497 125.03 73.4299C125.5 73.8908 125.5 74.6591 125.03 75.1201Z" fill="#73A4E0"/>
<path d="M124.092 93.9044L122.644 95.3257L115.447 88.2766V77.5205H117.501V87.4315L124.092 93.9044Z" fill="#73A4E0"/>
<path d="M120.044 68.8007H106.374L92.918 55.5668L94.3652 54.1455L107.234 66.7839H115.077L97.7291 49.747L99.1764 48.3257L120.044 68.8007Z" fill="#73A4E0"/>
<path d="M118.284 67.0705L116.832 68.4966L121.852 73.4267L123.304 72.0006L118.284 67.0705Z" fill="#73A4E0"/>
<path d="M137.159 85.6071L135.692 87.0284L130.705 82.1305H120.379V80.1138H131.546L137.159 85.6071Z" fill="#73A4E0"/>
<path d="M126.79 63.9627L123.762 66.937L125.214 68.3631L128.242 65.3887L126.79 63.9627Z" fill="#73A4E0"/>
<path d="M100.554 89.7145L96.6543 93.5444L98.1064 94.9705L102.006 91.1405L100.554 89.7145Z" fill="#73A4E0"/>
<path d="M98.1181 89.7151L96.666 91.1411L100.566 94.9711L102.018 93.545L98.1181 89.7151Z" fill="#73A4E0"/>
<path d="M123.488 63.1156L122.902 63.6918L107.314 48.3836H101.682L100.821 49.2287L100.469 49.5744L99.6089 50.4195L99.0221 50.9958L98.142 51.8409L93.6438 56.2778L92.7637 57.1229L89.7128 60.1385L84.3345 65.4205L83.4739 66.2464L82.8872 66.8418L82.0267 67.6869L81.6747 68.0327V73.5644L96.0298 87.6818L94.5826 89.1031L79.6016 74.4095V67.226L80.5794 66.2656V66.2464L81.44 65.4205L82.0267 64.8443V64.825L82.8872 63.9991L96.6948 50.4195L99.9609 47.2119H107.295L123.488 63.1156Z" fill="#73A4E0"/>
<path d="M145.288 84.5126V91.7153L144.173 92.8293L143.293 93.6745L141.239 95.6912L128.938 107.773L128.194 108.503L128.077 108.637L126.884 109.789L126.024 110.654L124.928 111.71H117.614L102.633 96.9973L103.22 96.4211L104.08 95.576L118.455 109.693H124.087L126.747 107.081L135.176 98.7836L136.037 97.9385L137.504 96.5172L141.982 92.1187L143.234 90.8894V90.8702L144.095 90.0251V84.5126L128.488 69.1851L129.074 68.6089L145.288 84.5126Z" fill="#73A4E0"/>
<path d="M93.0769 36.3794H90.1628L86.8381 39.6638L73.4021 52.8593L72.8154 53.4355L71.9549 54.2806L68.6105 57.5651L67.75 58.4102V61.2529L72.6394 66.0547H75.5339L76.3944 65.2096L77.959 63.673L78.8195 62.8471L79.4062 62.2517L80.2668 61.4258L94.0743 47.8462L94.9349 47.001L95.5216 46.4248L96.3821 45.5797L97.9467 44.0623V41.2196L93.0769 36.3794ZM94.0743 44.9843L77.3723 61.4066L76.5117 62.2325L74.6733 64.038H73.4803L69.784 60.4462V59.2745L70.6445 58.4294L73.3825 55.7404L74.2431 54.8953L87.4052 41.9687L88.2658 41.1236L90.9843 38.4346H92.1968L95.8736 42.0648V43.2364L94.9153 44.1776L94.0743 44.9843Z" fill="white"/>
<path d="M143.301 93.6738V93.4241L141.99 92.1372L137.512 96.5357L136.064 97.957L135.204 98.8021L126.755 107.081L124.447 109.347L125.758 110.634H131.899L143.32 99.4168L143.301 93.6738ZM128.085 108.636L128.222 108.502L128.945 107.791L141.267 95.6906V94.25L141.99 94.9607L141.267 95.6714V98.5717L131.938 107.753L131.077 108.598H128.085L127.361 109.309L126.638 108.598H128.085V108.636Z" fill="white"/>
<path d="M98.8835 49.7079L97.4363 51.1293L96.6931 50.4186L94.0724 47.8448L80.2648 61.4244L79.4043 62.2503L82.025 64.8241V64.8433L82.201 64.997V65.0162H82.2206L82.7486 65.554L82.1619 66.1302L81.3014 66.9753L80.7538 66.4183L80.5777 66.2646V66.2454L77.957 63.6716L76.4902 62.2503L77.3703 61.4244L94.0724 44.9829L98.8835 49.7079Z" fill="white"/>
<path d="M83.8645 38.4341H79.6205L78.0363 39.9899L77.1758 40.835L76.5891 41.4112L75.7286 42.2563L73.1665 44.7725L72.306 45.6176L70.7219 47.1734L69.8613 48.0185V52.1865L73.4208 55.6823L74.2813 54.8371L87.4435 41.9106L83.8645 38.4341ZM73.4012 52.8588L71.8953 51.3798V48.8829L80.4615 40.4701H83.0039L84.5099 41.949L73.4012 52.8588Z" fill="white"/>
<path d="M55.9205 19.9948L55.412 18.7464L52.4588 11.6397L36.6173 0L30.6914 5.81982L42.5432 21.3586L51.0312 24.7583L51.8721 25.0848L56.2726 20.7631V20.7439L55.9205 19.9948ZM51.3636 22.7223L43.834 19.7067L33.3903 6.01189L34.2509 5.16678L36.7933 2.66982L50.7378 12.9265L53.8083 20.3214L51.3636 22.7223Z" fill="white"/>
<path d="M77.1592 40.8544L56.487 20.5522L55.0397 19.1309L54.7073 19.4574L53.8467 20.3025L50.1699 23.9135L51.0305 24.7586L72.2894 45.637L73.7367 47.0583L78.626 42.2565L77.1592 40.8544ZM73.7367 44.2156L53.0449 23.9135L55.0202 21.9735L75.6924 42.2757L73.7367 44.2156Z" fill="white"/>
<path d="M82.206 65.008L80.7539 66.4341L98.8838 84.2394L100.336 82.8134L82.206 65.008Z" fill="white"/>
<path d="M114.255 75.385L112.803 76.811L135.911 99.5057L137.363 98.0797L114.255 75.385Z" fill="white"/>
<path d="M125.167 110.057L106.313 91.5991V80.9775L86.6777 61.6933L88.125 60.272L108.367 80.1516V90.754L126.614 108.636L125.167 110.057Z" fill="white"/>
<path d="M103.518 82.8029C102.853 82.1498 101.973 81.8425 101.093 81.8617C100.623 81.8809 100.134 81.9961 99.7237 82.1882C99.6064 82.2458 99.5086 82.3227 99.4108 82.3803C99.3913 82.3995 99.3913 82.3995 99.3913 82.3995C99.2544 82.4763 99.137 82.5724 99.0392 82.6876C98.9805 82.726 98.9414 82.7644 98.8827 82.8029C98.6285 83.0525 98.4329 83.3406 98.2765 83.6288C97.6506 84.8388 97.8462 86.337 98.8827 87.3358C100.154 88.5843 102.247 88.5843 103.518 87.3358C103.655 87.1821 103.811 87.0285 103.909 86.8556L103.929 86.8364C104.77 85.6071 104.633 83.9169 103.518 82.8029ZM100.33 85.9336C99.8411 85.4727 99.8411 84.7044 100.33 84.2434C100.486 84.0897 100.682 83.9937 100.878 83.9361C101.288 83.8593 101.719 83.9553 102.032 84.2434C102.344 84.5507 102.462 85.0117 102.344 85.3958C102.305 85.5879 102.188 85.78 102.032 85.9336C101.582 86.4138 100.799 86.4138 100.33 85.9336Z" fill="white"/>
<path d="M126.401 94.7491C125.736 94.0961 124.856 93.7888 123.995 93.808C123.526 93.8272 123.037 93.9232 122.626 94.1345H122.607C122.47 94.2113 122.352 94.269 122.235 94.3458C122.118 94.4226 122.02 94.4995 121.922 94.5955C121.863 94.6339 121.824 94.6723 121.785 94.7299C121.531 94.9796 121.335 95.2678 121.179 95.5559C120.553 96.7467 120.749 98.2449 121.785 99.2629C123.056 100.511 125.149 100.511 126.42 99.2629C126.557 99.1284 126.674 98.994 126.772 98.8403C126.772 98.8403 126.792 98.8403 126.792 98.8211C127.672 97.5918 127.535 95.8632 126.401 94.7491ZM123.232 97.8607C122.763 97.3998 122.763 96.6315 123.232 96.1705C123.389 96.0168 123.584 95.9016 123.78 95.8632C124.191 95.7671 124.64 95.8632 124.953 96.1705C125.266 96.4778 125.384 96.9196 125.266 97.3229C125.227 97.515 125.129 97.6879 124.953 97.8607C124.484 98.3409 123.702 98.3409 123.232 97.8607Z" fill="white"/>
<path d="M114.147 72.3733C113.013 71.2592 111.272 71.144 110.001 72.0083C109.844 72.1044 109.668 72.2388 109.512 72.3733C108.241 73.6217 108.241 75.6769 109.512 76.9254C110.568 77.9626 112.191 78.1547 113.443 77.4248C113.697 77.2904 113.932 77.1175 114.147 76.9254C114.225 76.8294 114.323 76.7526 114.382 76.6565C114.441 76.5989 114.499 76.5413 114.538 76.4644C114.636 76.3108 114.734 76.1379 114.832 75.9458C115.027 75.5233 115.105 75.0431 115.086 74.5629C115.066 73.7754 114.753 72.9687 114.147 72.3733ZM110.959 73.7946C111.116 73.641 111.311 73.5449 111.507 73.4873C111.918 73.3721 112.367 73.4681 112.68 73.7946C112.993 74.1019 113.111 74.5437 112.993 74.9471C112.954 75.1391 112.837 75.3312 112.68 75.4849C112.211 75.9458 111.429 75.9458 110.959 75.4849C110.49 75.0239 110.49 74.2556 110.959 73.7946Z" fill="white"/>
<path d="M139.463 86.4523C138.798 85.7992 137.918 85.4919 137.057 85.5111C136.588 85.5303 136.119 85.6456 135.688 85.8568C135.571 85.9145 135.434 85.9913 135.317 86.0681C135.2 86.1257 135.082 86.2026 134.984 86.3178C134.945 86.3562 134.887 86.3946 134.828 86.4331C134.574 86.6828 134.359 86.9516 134.222 87.259V87.2782C133.615 88.4882 133.811 89.9864 134.828 90.9852C136.099 92.2337 138.192 92.2337 139.463 90.9852C139.6 90.8315 139.737 90.6971 139.854 90.5242C140.715 89.2757 140.597 87.5663 139.463 86.4523ZM136.275 89.5638C135.806 89.1029 135.806 88.3346 136.275 87.8736C136.432 87.72 136.627 87.6239 136.823 87.5663C137.233 87.4702 137.683 87.5663 137.996 87.8736C138.309 88.1809 138.427 88.6419 138.309 89.0453C138.27 89.2565 138.172 89.4294 137.996 89.583C137.546 90.044 136.764 90.044 136.275 89.5638Z" fill="white"/>
<path d="M125.619 72.8536C124.954 72.2006 124.074 71.8933 123.194 71.9125C122.725 71.9317 122.236 72.0469 121.825 72.239C121.708 72.2966 121.61 72.3734 121.512 72.4311C121.493 72.4503 121.493 72.4503 121.493 72.4503C121.356 72.5463 121.239 72.6231 121.141 72.7192C121.082 72.7576 121.043 72.796 121.004 72.8536C120.75 73.1033 120.554 73.3914 120.398 73.6795C119.772 74.8896 119.967 76.3878 121.004 77.3865C122.275 78.635 124.368 78.635 125.639 77.3865C125.795 77.2521 125.913 77.0792 126.011 76.9064C126.871 75.6579 126.734 73.9484 125.619 72.8536ZM122.432 75.9652C121.962 75.5042 121.962 74.7359 122.432 74.275C122.588 74.1213 122.784 74.0253 122.979 73.9677C123.39 73.8716 123.84 73.9677 124.153 74.275C124.466 74.5823 124.583 75.0433 124.466 75.4466C124.426 75.6387 124.309 75.8116 124.153 75.9844C123.703 76.4454 122.92 76.4454 122.432 75.9652Z" fill="white"/>
<path d="M123.234 94.7496L121.787 96.1709L114.59 89.1218V78.3657H116.643V88.2767L123.234 94.7496Z" fill="white"/>
<path d="M119.163 69.6459H105.512L92.0371 56.4121L93.5039 54.9907L106.373 67.6292H114.215L96.8678 50.5922L98.3151 49.1709L119.163 69.6459Z" fill="white"/>
<path d="M117.415 67.9143L115.963 69.3403L120.983 74.2704L122.435 72.8444L117.415 67.9143Z" fill="white"/>
<path d="M136.302 86.4528L134.835 87.8741L129.848 82.9762H119.521V80.9595H130.689L136.302 86.4528Z" fill="white"/>
<path d="M128.245 65.3815L125.214 68.3586L124.354 69.2037L122.887 67.7824L126.798 63.9409L128.245 65.3815Z" fill="white"/>
<path d="M99.6908 90.5582L95.791 94.3882L97.2431 95.8142L101.143 91.9843L99.6908 90.5582Z" fill="white"/>
<path d="M97.2548 90.5593L95.8027 91.9854L99.7025 95.8153L101.155 94.3893L97.2548 90.5593Z" fill="white"/>
<path d="M123.49 63.1156L122.903 63.6918L122.042 64.5369L106.455 49.2287H100.823L100.471 49.5744L99.61 50.4195L99.0233 50.9958L98.1432 51.8409L93.645 56.2778L92.7649 57.1229L89.7139 60.1385L84.3356 65.4205L83.4751 66.2464L82.8883 66.8418L82.0278 67.6869L81.6758 68.0327L80.8153 68.897V74.4095L95.1704 88.5269L93.7232 89.9482L78.7617 75.2546V68.0519L79.6027 67.226L80.5806 66.2656V66.2464L81.4411 65.4205L82.0278 64.8443V64.825L82.8883 63.9991L96.6959 50.4195L99.962 47.2119H107.296L123.49 63.1156Z" fill="white"/>
<path d="M145.299 84.5126V91.7153L144.184 92.8293L143.304 93.6745L141.25 95.6912L128.949 107.773L128.205 108.503L128.088 108.637L126.895 109.789L126.034 110.654L124.939 111.71L124.079 112.555H116.745L101.764 97.8424L102.644 96.9973L103.23 96.4211L117.605 110.539H123.238L126.758 107.081L135.207 98.8028L136.067 97.9577L137.515 96.5172L141.993 92.1187L143.245 90.8894V90.8702V85.3577L127.638 70.0302L128.499 69.1851L129.085 68.6089L145.299 84.5126Z" fill="white"/>
<path d="M77.1582 34.7462L78.0188 33.901L78.2534 34.1315H85.6657L85.9591 34.4196L88.3255 32.0764H88.3451H94.8968L102.348 39.4136V42.8901H109.115L125.563 59.0435L133.229 66.5727L134.97 68.2822C135.987 64.4407 136.515 60.4264 136.515 56.2776C136.515 29.9443 114.787 8.60498 87.9735 8.60498C77.3929 8.60498 67.6337 11.9279 59.6543 17.5748L77.1582 34.7462Z" fill="#73A4E0"/>
<path d="M99.7018 101.915L98.4697 100.705L90.8032 93.1757L74.3553 77.0223V70.3766H70.7959L63.3445 63.0586V56.6241L65.7305 54.2808L65.4371 53.9927V46.2521L66.063 45.6375L48.5786 28.4854C42.8483 36.3027 39.4648 45.9064 39.4648 56.2784C39.4648 82.6116 61.1932 103.951 88.0064 103.951C92.2309 103.951 96.3184 103.413 100.23 102.434L99.7018 101.915Z" fill="#73A4E0"/>
</svg>
